P3
64 64
255
170 38 235 170 38 235 170 38 235 170 38 235 170 38 235 170 38 235 170 38 235 170 38 235 170 38 235 170 38 235 170 38 235 170 38 235 170 38 235 170 38 235 170 38 235 170 38 235 170 38 235 170 38 235 170 38 235 170 38 235 170 38 235 170 38 235 170 38 235 170 38 235 170 38 235 170 38 235 170 38 235 170 38 235 170 38 235 170 38 235 170 38 235 170 38 235 170 38 235 170 38 235 170 38 235 170 38 235 170 38 235 170 38 235 170 38 235 170 38 235 170 38 235 170 38 235 170 38 235 170 38 235 170 38 235 170 38 235 170 38 235 170 38 235 170 38 235 170 38 235 170 38 235 170 38 235 170 38 235 170 38 235 170 38 235 170 38 235 170 38 235 170 38 235 170 38 235 170 38 235 170 38 235 170 38 235 170 38 235 170 38 235
174 42 239 174 42 239 174 42 239 174 42 239 174 42 239 174 42 239 174 42 239 174 42 239 174 42 239 174 42 239 174 42 239 174 42 239 174 42 239 174 42 239 174 42 239 174 42 239 174 42 239 174 42 239 174 42 239 174 42 239 174 42 239 174 42 239 174 42 239 174 42 239 174 42 239 174 42 239 174 42 239 174 42 239 174 42 239 174 42 239 174 42 239 174 42 239 174 42 239 174 42 239 174 42 239 174 42 239 174 42 239 174 42 239 174 42 239 174 42 239 174 42 239 174 42 239 174 42 239 174 42 239 174 42 239 174 42 239 174 42 239 174 42 239 174 42 239 174 42 239 174 42 239 174 42 239 174 42 239 174 42 239 174 42 239 174 42 239 174 42 239 174 42 239 174 42 239 174 42 239 174 42 239 174 42 239 174 42 239 174 42 239
178 46 243 178 46 243 178 46 243 178 46 243 178 46 243 178 46 243 178 46 243 178 46 243 178 46 243 178 46 243 178 46 243 178 46 243 178 46 243 178 46 243 178 46 243 178 46 243 178 46 243 178 46 243 178 46 243 178 46 243 178 46 243 178 46 243 178 46 243 178 46 243 178 46 243 178 46 243 178 46 243 178 46 243 178 46 243 178 46 243 178 46 243 178 46 243 178 46 243 178 46 243 178 46 243 178 46 243 178 46 243 178 46 243 178 46 243 178 46 243 178 46 243 178 46 243 178 46 243 178 46 243 178 46 243 178 46 243 178 46 243 178 46 243 178 46 243 178 46 243 178 46 243 178 46 243 178 46 243 178 46 243 178 46 243 178 46 243 178 46 243 178 46 243 178 46 243 178 46 243 178 46 243 178 46 243 178 46 243 178 46 243
182 50 247 182 50 247 182 50 247 182 50 247 182 50 247 182 50 247 182 50 247 182 50 247 182 50 247 182 50 247 182 50 247 182 50 247 182 50 247 182 50 247 182 50 247 182 50 247 182 50 247 182 50 247 182 50 247 182 50 247 182 50 247 182 50 247 182 50 247 182 50 247 182 50 247 182 50 247 182 50 247 182 50 247 182 50 247 182 50 247 182 50 247 182 50 247 182 50 247 182 50 247 182 50 247 182 50 247 182 50 247 182 50 247 182 50 247 182 50 247 182 50 247 182 50 247 182 50 247 182 50 247 182 50 247 182 50 247 182 50 247 182 50 247 182 50 247 182 50 247 182 50 247 182 50 247 182 50 247 182 50 247 182 50 247 182 50 247 182 50 247 182 50 247 182 50 247 182 50 247 182 50 247 182 50 247 182 50 247 182 50 247
186 54 251 186 54 251 186 54 251 186 54 251 186 54 251 186 54 251 186 54 251 186 54 251 186 54 251 186 54 251 186 54 251 186 54 251 186 54 251 186 54 251 186 54 251 186 54 251 186 54 251 186 54 251 186 54 251 186 54 251 186 54 251 186 54 251 186 54 251 186 54 251 186 54 251 186 54 251 186 54 251 186 54 251 186 54 251 186 54 251 186 54 251 186 54 251 186 54 251 186 54 251 186 54 251 186 54 251 186 54 251 186 54 251 186 54 251 186 54 251 186 54 251 186 54 251 186 54 251 186 54 251 186 54 251 186 54 251 186 54 251 186 54 251 186 54 251 186 54 251 186 54 251 186 54 251 186 54 251 186 54 251 186 54 251 186 54 251 186 54 251 186 54 251 186 54 251 186 54 251 186 54 251 186 54 251 186 54 251 186 54 251
190 58 255 190 58 255 190 58 255 190 58 255 190 58 255 190 58 255 190 58 255 190 58 255 190 58 255 190 58 255 190 58 255 190 58 255 190 58 255 190 58 255 190 58 255 190 58 255 190 58 255 190 58 255 190 58 255 190 58 255 190 58 255 190 58 255 190 58 255 190 58 255 190 58 255 190 58 255 190 58 255 190 58 255 190 58 255 190 58 255 190 58 255 190 58 255 190 58 255 190 58 255 190 58 255 190 58 255 190 58 255 190 58 255 190 58 255 190 58 255 190 58 255 190 58 255 190 58 255 190 58 255 190 58 255 190 58 255 190 58 255 190 58 255 190 58 255 190 58 255 190 58 255 190 58 255 190 58 255 190 58 255 190 58 255 190 58 255 190 58 255 190 58 255 190 58 255 190 58 255 190 58 255 190 58 255 190 58 255 190 58 255
194 62 3 194 62 3 194 62 3 194 62 3 194 62 3 194 62 3 194 62 3 194 62 3 194 62 3 194 62 3 194 62 3 194 62 3 194 62 3 194 62 3 194 62 3 194 62 3 194 62 3 194 62 3 194 62 3 194 62 3 194 62 3 194 62 3 194 62 3 194 62 3 194 62 3 194 62 3 194 62 3 194 62 3 194 62 3 194 62 3 194 62 3 194 62 3 194 62 3 194 62 3 194 62 3 194 62 3 194 62 3 194 62 3 194 62 3 194 62 3 194 62 3 194 62 3 194 62 3 194 62 3 194 62 3 194 62 3 194 62 3 194 62 3 194 62 3 194 62 3 194 62 3 194 62 3 194 62 3 194 62 3 194 62 3 194 62 3 194 62 3 194 62 3 194 62 3 194 62 3 194 62 3 194 62 3 194 62 3 194 62 3
198 66 7 198 66 7 198 66 7 198 66 7 198 66 7 198 66 7 198 66 7 198 66 7 198 66 7 198 66 7 198 66 7 198 66 7 198 66 7 198 66 7 198 66 7 198 66 7 198 66 7 198 66 7 198 66 7 198 66 7 198 66 7 198 66 7 198 66 7 198 66 7 198 66 7 198 66 7 198 66 7 198 66 7 198 66 7 198 66 7 198 66 7 198 66 7 198 66 7 198 66 7 198 66 7 198 66 7 198 66 7 198 66 7 198 66 7 198 66 7 198 66 7 198 66 7 198 66 7 198 66 7 198 66 7 198 66 7 198 66 7 198 66 7 198 66 7 198 66 7 198 66 7 198 66 7 198 66 7 198 66 7 198 66 7 198 66 7 198 66 7 198 66 7 198 66 7 198 66 7 198 66 7 198 66 7 198 66 7 198 66 7
202 70 11 202 70 11 202 70 11 202 70 11 202 70 11 202 70 11 202 70 11 202 70 11 202 70 11 202 70 11 202 70 11 202 70 11 202 70 11 202 70 11 202 70 11 202 70 11 202 70 11 202 70 11 202 70 11 202 70 11 202 70 11 202 70 11 202 70 11 202 70 11 202 70 11 202 70 11 202 70 11 202 70 11 202 70 11 202 70 11 202 70 11 202 70 11 202 70 11 202 70 11 202 70 11 202 70 11 202 70 11 202 70 11 202 70 11 202 70 11 202 70 11 202 70 11 202 70 11 202 70 11 202 70 11 202 70 11 202 70 11 202 70 11 202 70 11 202 70 11 202 70 11 202 70 11 202 70 11 202 70 11 202 70 11 202 70 11 202 70 11 202 70 11 202 70 11 202 70 11 202 70 11 202 70 11 202 70 11 202 70 11
206 74 15 206 74 15 206 74 15 206 74 15 206 74 15 206 74 15 206 74 15 206 74 15 206 74 15 206 74 15 206 74 15 206 74 15 206 74 15 206 74 15 206 74 15 206 74 15 206 74 15 206 74 15 206 74 15 206 74 15 206 74 15 206 74 15 206 74 15 206 74 15 206 74 15 206 74 15 206 74 15 206 74 15 206 74 15 206 74 15 206 74 15 206 74 15 206 74 15 206 74 15 206 74 15 206 74 15 206 74 15 206 74 15 206 74 15 206 74 15 206 74 15 206 74 15 206 74 15 206 74 15 206 74 15 206 74 15 206 74 15 206 74 15 206 74 15 206 74 15 206 74 15 206 74 15 206 74 15 206 74 15 206 74 15 206 74 15 206 74 15 206 74 15 206 74 15 206 74 15 206 74 15 206 74 15 206 74 15 206 74 15
210 78 19 210 78 19 210 78 19 210 78 19 210 78 19 210 78 19 210 78 19 210 78 19 210 78 19 210 78 19 210 78 19 210 78 19 210 78 19 210 78 19 210 78 19 210 78 19 210 78 19 210 78 19 210 78 19 210 78 19 210 78 19 210 78 19 210 78 19 210 78 19 210 78 19 210 78 19 210 78 19 210 78 19 210 78 19 210 78 19 210 78 19 210 78 19 210 78 19 210 78 19 210 78 19 210 78 19 210 78 19 210 78 19 210 78 19 210 78 19 210 78 19 210 78 19 210 78 19 210 78 19 210 78 19 210 78 19 210 78 19 210 78 19 210 78 19 210 78 19 210 78 19 210 78 19 210 78 19 210 78 19 210 78 19 210 78 19 210 78 19 210 78 19 210 78 19 210 78 19 210 78 19 210 78 19 210 78 19 210 78 19
214 82 23 214 82 23 214 82 23 214 82 23 214 82 23 214 82 23 214 82 23 214 82 23 214 82 23 214 82 23 214 82 23 214 82 23 214 82 23 214 82 23 214 82 23 214 82 23 214 82 23 214 82 23 214 82 23 214 82 23 214 82 23 214 82 23 214 82 23 214 82 23 214 82 23 214 82 23 214 82 23 214 82 23 214 82 23 214 82 23 214 82 23 214 82 23 214 82 23 214 82 23 214 82 23 214 82 23 214 82 23 214 82 23 214 82 23 214 82 23 214 82 23 214 82 23 214 82 23 214 82 23 214 82 23 214 82 23 214 82 23 214 82 23 214 82 23 214 82 23 214 82 23 214 82 23 214 82 23 214 82 23 214 82 23 214 82 23 214 82 23 214 82 23 214 82 23 214 82 23 214 82 23 214 82 23 214 82 23 214 82 23
218 86 27 218 86 27 218 86 27 218 86 27 218 86 27 218 86 27 218 86 27 218 86 27 218 86 27 218 86 27 218 86 27 218 86 27 218 86 27 218 86 27 218 86 27 218 86 27 218 86 27 218 86 27 218 86 27 218 86 27 218 86 27 218 86 27 218 86 27 218 86 27 218 86 27 218 86 27 218 86 27 218 86 27 218 86 27 218 86 27 218 86 27 218 86 27 218 86 27 218 86 27 218 86 27 218 86 27 218 86 27 218 86 27 218 86 27 218 86 27 218 86 27 218 86 27 218 86 27 218 86 27 218 86 27 218 86 27 218 86 27 218 86 27 218 86 27 218 86 27 218 86 27 218 86 27 218 86 27 218 86 27 218 86 27 218 86 27 218 86 27 218 86 27 218 86 27 218 86 27 218 86 27 218 86 27 218 86 27 218 86 27
222 90 31 222 90 31 222 90 31 222 90 31 222 90 31 222 90 31 222 90 31 222 90 31 222 90 31 222 90 31 222 90 31 222 90 31 222 90 31 222 90 31 222 90 31 222 90 31 222 90 31 222 90 31 222 90 31 222 90 31 222 90 31 222 90 31 222 90 31 222 90 31 222 90 31 222 90 31 222 90 31 222 90 31 222 90 31 222 90 31 222 90 31 222 90 31 222 90 31 222 90 31 222 90 31 222 90 31 222 90 31 222 90 31 222 90 31 222 90 31 222 90 31 222 90 31 222 90 31 222 90 31 222 90 31 222 90 31 222 90 31 222 90 31 222 90 31 222 90 31 222 90 31 222 90 31 222 90 31 222 90 31 222 90 31 222 90 31 222 90 31 222 90 31 222 90 31 222 90 31 222 90 31 222 90 31 222 90 31 222 90 31
226 94 35 226 94 35 226 94 35 226 94 35 226 94 35 226 94 35 226 94 35 226 94 35 226 94 35 226 94 35 226 94 35 226 94 35 226 94 35 226 94 35 226 94 35 226 94 35 226 94 35 226 94 35 226 94 35 226 94 35 226 94 35 226 94 35 226 94 35 226 94 35 226 94 35 226 94 35 226 94 35 226 94 35 226 94 35 226 94 35 226 94 35 226 94 35 226 94 35 226 94 35 226 94 35 226 94 35 226 94 35 226 94 35 226 94 35 226 94 35 226 94 35 226 94 35 226 94 35 226 94 35 226 94 35 226 94 35 226 94 35 226 94 35 226 94 35 226 94 35 226 94 35 226 94 35 226 94 35 226 94 35 226 94 35 226 94 35 226 94 35 226 94 35 226 94 35 226 94 35 226 94 35 226 94 35 226 94 35 226 94 35
230 98 39 230 98 39 230 98 39 230 98 39 230 98 39 230 98 39 230 98 39 230 98 39 230 98 39 230 98 39 230 98 39 230 98 39 230 98 39 230 98 39 230 98 39 230 98 39 230 98 39 230 98 39 230 98 39 230 98 39 230 98 39 230 98 39 230 98 39 230 98 39 230 98 39 230 98 39 230 98 39 230 98 39 230 98 39 230 98 39 230 98 39 230 98 39 230 98 39 230 98 39 230 98 39 230 98 39 230 98 39 230 98 39 230 98 39 230 98 39 230 98 39 230 98 39 230 98 39 230 98 39 230 98 39 230 98 39 230 98 39 230 98 39 230 98 39 230 98 39 230 98 39 230 98 39 230 98 39 230 98 39 230 98 39 230 98 39 230 98 39 230 98 39 230 98 39 230 98 39 230 98 39 230 98 39 230 98 39 230 98 39
234 102 43 234 102 43 234 102 43 234 102 43 234 102 43 234 102 43 234 102 43 234 102 43 234 102 43 234 102 43 234 102 43 234 102 43 234 102 43 234 102 43 234 102 43 234 102 43 234 102 43 234 102 43 234 102 43 234 102 43 234 102 43 234 102 43 234 102 43 234 102 43 234 102 43 234 102 43 234 102 43 234 102 43 234 102 43 234 102 43 234 102 43 234 102 43 234 102 43 234 102 43 234 102 43 234 102 43 234 102 43 234 102 43 234 102 43 234 102 43 234 102 43 234 102 43 234 102 43 234 102 43 234 102 43 234 102 43 234 102 43 234 102 43 234 102 43 234 102 43 234 102 43 234 102 43 234 102 43 234 102 43 234 102 43 234 102 43 234 102 43 234 102 43 234 102 43 234 102 43 234 102 43 234 102 43 234 102 43 234 102 43
238 106 47 238 106 47 238 106 47 238 106 47 238 106 47 238 106 47 238 106 47 238 106 47 238 106 47 238 106 47 238 106 47 238 106 47 238 106 47 238 106 47 238 106 47 238 106 47 238 106 47 238 106 47 238 106 47 238 106 47 238 106 47 238 106 47 238 106 47 238 106 47 238 106 47 238 106 47 238 106 47 238 106 47 238 106 47 238 106 47 238 106 47 238 106 47 238 106 47 238 106 47 238 106 47 238 106 47 238 106 47 238 106 47 238 106 47 238 106 47 238 106 47 238 106 47 238 106 47 238 106 47 238 106 47 238 106 47 238 106 47 238 106 47 238 106 47 238 106 47 238 106 47 238 106 47 238 106 47 238 106 47 238 106 47 238 106 47 238 106 47 238 106 47 238 106 47 238 106 47 238 106 47 238 106 47 238 106 47 238 106 47
242 110 51 242 110 51 242 110 51 242 110 51 242 110 51 242 110 51 242 110 51 242 110 51 242 110 51 242 110 51 242 110 51 242 110 51 242 110 51 242 110 51 242 110 51 242 110 51 242 110 51 242 110 51 242 110 51 242 110 51 242 110 51 242 110 51 242 110 51 242 110 51 242 110 51 242 110 51 242 110 51 242 110 51 242 110 51 242 110 51 242 110 51 242 110 51 242 110 51 242 110 51 242 110 51 242 110 51 242 110 51 242 110 51 242 110 51 242 110 51 242 110 51 242 110 51 242 110 51 242 110 51 242 110 51 242 110 51 242 110 51 242 110 51 242 110 51 242 110 51 242 110 51 242 110 51 242 110 51 242 110 51 242 110 51 242 110 51 242 110 51 242 110 51 242 110 51 242 110 51 242 110 51 242 110 51 242 110 51 242 110 51
246 114 55 246 114 55 246 114 55 246 114 55 246 114 55 246 114 55 246 114 55 246 114 55 246 114 55 246 114 55 246 114 55 246 114 55 246 114 55 246 114 55 246 114 55 246 114 55 246 114 55 246 114 55 246 114 55 246 114 55 246 114 55 246 114 55 246 114 55 246 114 55 246 114 55 246 114 55 246 114 55 246 114 55 246 114 55 246 114 55 246 114 55 246 114 55 246 114 55 246 114 55 246 114 55 246 114 55 246 114 55 246 114 55 246 114 55 246 114 55 246 114 55 246 114 55 246 114 55 246 114 55 246 114 55 246 114 55 246 114 55 246 114 55 246 114 55 246 114 55 246 114 55 246 114 55 246 114 55 246 114 55 246 114 55 246 114 55 246 114 55 246 114 55 246 114 55 246 114 55 246 114 55 246 114 55 246 114 55 246 114 55
250 118 59 250 118 59 250 118 59 250 118 59 250 118 59 250 118 59 250 118 59 250 118 59 250 118 59 250 118 59 250 118 59 250 118 59 250 118 59 250 118 59 250 118 59 250 118 59 250 118 59 250 118 59 250 118 59 250 118 59 250 118 59 250 118 59 250 118 59 250 118 59 250 118 59 250 118 59 250 118 59 250 118 59 250 118 59 250 118 59 250 118 59 250 118 59 250 118 59 250 118 59 250 118 59 250 118 59 250 118 59 250 118 59 250 118 59 250 118 59 250 118 59 250 118 59 250 118 59 250 118 59 250 118 59 250 118 59 250 118 59 250 118 59 250 118 59 250 118 59 250 118 59 250 118 59 250 118 59 250 118 59 250 118 59 250 118 59 250 118 59 250 118 59 250 118 59 250 118 59 250 118 59 250 118 59 250 118 59 250 118 59
254 122 63 254 122 63 254 122 63 254 122 63 254 122 63 254 122 63 254 122 63 254 122 63 254 122 63 254 122 63 254 122 63 254 122 63 254 122 63 254 122 63 254 122 63 254 122 63 254 122 63 254 122 63 254 122 63 254 122 63 254 122 63 254 122 63 254 122 63 254 122 63 254 122 63 254 122 63 254 122 63 254 122 63 254 122 63 254 122 63 254 122 63 254 122 63 254 122 63 254 122 63 254 122 63 254 122 63 254 122 63 254 122 63 254 122 63 254 122 63 254 122 63 254 122 63 254 122 63 254 122 63 254 122 63 254 122 63 254 122 63 254 122 63 254 122 63 254 122 63 254 122 63 254 122 63 254 122 63 254 122 63 254 122 63 254 122 63 254 122 63 254 122 63 254 122 63 254 122 63 254 122 63 254 122 63 254 122 63 254 122 63
2 126 67 2 126 67 2 126 67 2 126 67 2 126 67 2 126 67 2 126 67 2 126 67 2 126 67 2 126 67 2 126 67 2 126 67 2 126 67 2 126 67 2 126 67 2 126 67 2 126 67 2 126 67 2 126 67 2 126 67 2 126 67 2 126 67 2 126 67 2 126 67 2 126 67 2 126 67 2 126 67 2 126 67 2 126 67 2 126 67 2 126 67 2 126 67 2 126 67 2 126 67 2 126 67 2 126 67 2 126 67 2 126 67 2 126 67 2 126 67 2 126 67 2 126 67 2 126 67 2 126 67 2 126 67 2 126 67 2 126 67 2 126 67 2 126 67 2 126 67 2 126 67 2 126 67 2 126 67 2 126 67 2 126 67 2 126 67 2 126 67 2 126 67 2 126 67 2 126 67 2 126 67 2 126 67 2 126 67 2 126 67
6 130 71 6 130 71 6 130 71 6 130 71 6 130 71 6 130 71 6 130 71 6 130 71 6 130 71 6 130 71 6 130 71 6 130 71 6 130 71 6 130 71 6 130 71 6 130 71 6 130 71 6 130 71 6 130 71 6 130 71 6 130 71 6 130 71 6 130 71 6 130 71 6 130 71 6 130 71 6 130 71 6 130 71 6 130 71 6 130 71 6 130 71 6 130 71 6 130 71 6 130 71 6 130 71 6 130 71 6 130 71 6 130 71 6 130 71 6 130 71 6 130 71 6 130 71 6 130 71 6 130 71 6 130 71 6 130 71 6 130 71 6 130 71 6 130 71 6 130 71 6 130 71 6 130 71 6 130 71 6 130 71 6 130 71 6 130 71 6 130 71 6 130 71 6 130 71 6 130 71 6 130 71 6 130 71 6 130 71 6 130 71
10 134 75 10 134 75 10 134 75 10 134 75 10 134 75 10 134 75 10 134 75 10 134 75 10 134 75 10 134 75 10 134 75 10 134 75 10 134 75 10 134 75 10 134 75 10 134 75 10 134 75 10 134 75 10 134 75 10 134 75 10 134 75 10 134 75 10 134 75 10 134 75 10 134 75 10 134 75 10 134 75 10 134 75 10 134 75 10 134 75 10 134 75 10 134 75 10 134 75 10 134 75 10 134 75 10 134 75 10 134 75 10 134 75 10 134 75 10 134 75 10 134 75 10 134 75 10 134 75 10 134 75 10 134 75 10 134 75 10 134 75 10 134 75 10 134 75 10 134 75 10 134 75 10 134 75 10 134 75 10 134 75 10 134 75 10 134 75 10 134 75 10 134 75 10 134 75 10 134 75 10 134 75 10 134 75 10 134 75 10 134 75
14 138 79 14 138 79 14 138 79 14 138 79 14 138 79 14 138 79 14 138 79 14 138 79 14 138 79 14 138 79 14 138 79 14 138 79 14 138 79 14 138 79 14 138 79 14 138 79 14 138 79 14 138 79 14 138 79 14 138 79 14 138 79 14 138 79 14 138 79 14 138 79 14 138 79 14 138 79 14 138 79 14 138 79 14 138 79 14 138 79 14 138 79 14 138 79 14 138 79 14 138 79 14 138 79 14 138 79 14 138 79 14 138 79 14 138 79 14 138 79 14 138 79 14 138 79 14 138 79 14 138 79 14 138 79 14 138 79 14 138 79 14 138 79 14 138 79 14 138 79 14 138 79 14 138 79 14 138 79 14 138 79 14 138 79 14 138 79 14 138 79 14 138 79 14 138 79 14 138 79 14 138 79 14 138 79 14 138 79 14 138 79
18 142 83 18 142 83 18 142 83 18 142 83 18 142 83 18 142 83 18 142 83 18 142 83 18 142 83 18 142 83 18 142 83 18 142 83 18 142 83 18 142 83 18 142 83 18 142 83 18 142 83 18 142 83 18 142 83 18 142 83 18 142 83 18 142 83 18 142 83 18 142 83 18 142 83 18 142 83 18 142 83 18 142 83 18 142 83 18 142 83 18 142 83 18 142 83 18 142 83 18 142 83 18 142 83 18 142 83 18 142 83 18 142 83 18 142 83 18 142 83 18 142 83 18 142 83 18 142 83 18 142 83 18 142 83 18 142 83 18 142 83 18 142 83 18 142 83 18 142 83 18 142 83 18 142 83 18 142 83 18 142 83 18 142 83 18 142 83 18 142 83 18 142 83 18 142 83 18 142 83 18 142 83 18 142 83 18 142 83 18 142 83
22 146 87 22 146 87 22 146 87 22 146 87 22 146 87 22 146 87 22 146 87 22 146 87 22 146 87 22 146 87 22 146 87 22 146 87 22 146 87 22 146 87 22 146 87 22 146 87 22 146 87 22 146 87 22 146 87 22 146 87 22 146 87 22 146 87 22 146 87 22 146 87 22 146 87 22 146 87 22 146 87 22 146 87 22 146 87 22 146 87 22 146 87 22 146 87 22 146 87 22 146 87 22 146 87 22 146 87 22 146 87 22 146 87 22 146 87 22 146 87 22 146 87 22 146 87 22 146 87 22 146 87 22 146 87 22 146 87 22 146 87 22 146 87 22 146 87 22 146 87 22 146 87 22 146 87 22 146 87 22 146 87 22 146 87 22 146 87 22 146 87 22 146 87 22 146 87 22 146 87 22 146 87 22 146 87 22 146 87 22 146 87
26 150 91 26 150 91 26 150 91 26 150 91 26 150 91 26 150 91 26 150 91 26 150 91 26 150 91 26 150 91 26 150 91 26 150 91 26 150 91 26 150 91 26 150 91 26 150 91 26 150 91 26 150 91 26 150 91 26 150 91 26 150 91 26 150 91 26 150 91 26 150 91 26 150 91 26 150 91 26 150 91 26 150 91 26 150 91 26 150 91 26 150 91 26 150 91 26 150 91 26 150 91 26 150 91 26 150 91 26 150 91 26 150 91 26 150 91 26 150 91 26 150 91 26 150 91 26 150 91 26 150 91 26 150 91 26 150 91 26 150 91 26 150 91 26 150 91 26 150 91 26 150 91 26 150 91 26 150 91 26 150 91 26 150 91 26 150 91 26 150 91 26 150 91 26 150 91 26 150 91 26 150 91 26 150 91 26 150 91 26 150 91
30 154 95 30 154 95 30 154 95 30 154 95 30 154 95 30 154 95 30 154 95 30 154 95 30 154 95 30 154 95 30 154 95 30 154 95 30 154 95 30 154 95 30 154 95 30 154 95 30 154 95 30 154 95 30 154 95 30 154 95 30 154 95 30 154 95 30 154 95 30 154 95 30 154 95 30 154 95 30 154 95 30 154 95 30 154 95 30 154 95 30 154 95 30 154 95 30 154 95 30 154 95 30 154 95 30 154 95 30 154 95 30 154 95 30 154 95 30 154 95 30 154 95 30 154 95 30 154 95 30 154 95 30 154 95 30 154 95 30 154 95 30 154 95 30 154 95 30 154 95 30 154 95 30 154 95 30 154 95 30 154 95 30 154 95 30 154 95 30 154 95 30 154 95 30 154 95 30 154 95 30 154 95 30 154 95 30 154 95 30 154 95
34 158 99 34 158 99 34 158 99 34 158 99 34 158 99 34 158 99 34 158 99 34 158 99 34 158 99 34 158 99 34 158 99 34 158 99 34 158 99 34 158 99 34 158 99 34 158 99 34 158 99 34 158 99 34 158 99 34 158 99 34 158 99 34 158 99 34 158 99 34 158 99 34 158 99 34 158 99 34 158 99 34 158 99 34 158 99 34 158 99 34 158 99 34 158 99 34 158 99 34 158 99 34 158 99 34 158 99 34 158 99 34 158 99 34 158 99 34 158 99 34 158 99 34 158 99 34 158 99 34 158 99 34 158 99 34 158 99 34 158 99 34 158 99 34 158 99 34 158 99 34 158 99 34 158 99 34 158 99 34 158 99 34 158 99 34 158 99 34 158 99 34 158 99 34 158 99 34 158 99 34 158 99 34 158 99 34 158 99 34 158 99
38 162 103 38 162 103 38 162 103 38 162 103 38 162 103 38 162 103 38 162 103 38 162 103 38 162 103 38 162 103 38 162 103 38 162 103 38 162 103 38 162 103 38 162 103 38 162 103 38 162 103 38 162 103 38 162 103 38 162 103 38 162 103 38 162 103 38 162 103 38 162 103 38 162 103 38 162 103 38 162 103 38 162 103 38 162 103 38 162 103 38 162 103 38 162 103 38 162 103 38 162 103 38 162 103 38 162 103 38 162 103 38 162 103 38 162 103 38 162 103 38 162 103 38 162 103 38 162 103 38 162 103 38 162 103 38 162 103 38 162 103 38 162 103 38 162 103 38 162 103 38 162 103 38 162 103 38 162 103 38 162 103 38 162 103 38 162 103 38 162 103 38 162 103 38 162 103 38 162 103 38 162 103 38 162 103 38 162 103 38 162 103
42 166 107 42 166 107 42 166 107 42 166 107 42 166 107 42 166 107 42 166 107 42 166 107 42 166 107 42 166 107 42 166 107 42 166 107 42 166 107 42 166 107 42 166 107 42 166 107 42 166 107 42 166 107 42 166 107 42 166 107 42 166 107 42 166 107 42 166 107 42 166 107 42 166 107 42 166 107 42 166 107 42 166 107 42 166 107 42 166 107 42 166 107 42 166 107 42 166 107 42 166 107 42 166 107 42 166 107 42 166 107 42 166 107 42 166 107 42 166 107 42 166 107 42 166 107 42 166 107 42 166 107 42 166 107 42 166 107 42 166 107 42 166 107 42 166 107 42 166 107 42 166 107 42 166 107 42 166 107 42 166 107 42 166 107 42 166 107 42 166 107 42 166 107 42 166 107 42 166 107 42 166 107 42 166 107 42 166 107 42 166 107
46 170 111 46 170 111 46 170 111 46 170 111 46 170 111 46 170 111 46 170 111 46 170 111 46 170 111 46 170 111 46 170 111 46 170 111 46 170 111 46 170 111 46 170 111 46 170 111 46 170 111 46 170 111 46 170 111 46 170 111 46 170 111 46 170 111 46 170 111 46 170 111 46 170 111 46 170 111 46 170 111 46 170 111 46 170 111 46 170 111 46 170 111 46 170 111 46 170 111 46 170 111 46 170 111 46 170 111 46 170 111 46 170 111 46 170 111 46 170 111 46 170 111 46 170 111 46 170 111 46 170 111 46 170 111 46 170 111 46 170 111 46 170 111 46 170 111 46 170 111 46 170 111 46 170 111 46 170 111 46 170 111 46 170 111 46 170 111 46 170 111 46 170 111 46 170 111 46 170 111 46 170 111 46 170 111 46 170 111 46 170 111
50 174 115 50 174 115 50 174 115 50 174 115 50 174 115 50 174 115 50 174 115 50 174 115 50 174 115 50 174 115 50 174 115 50 174 115 50 174 115 50 174 115 50 174 115 50 174 115 50 174 115 50 174 115 50 174 115 50 174 115 50 174 115 50 174 115 50 174 115 50 174 115 50 174 115 50 174 115 50 174 115 50 174 115 50 174 115 50 174 115 50 174 115 50 174 115 50 174 115 50 174 115 50 174 115 50 174 115 50 174 115 50 174 115 50 174 115 50 174 115 50 174 115 50 174 115 50 174 115 50 174 115 50 174 115 50 174 115 50 174 115 50 174 115 50 174 115 50 174 115 50 174 115 50 174 115 50 174 115 50 174 115 50 174 115 50 174 115 50 174 115 50 174 115 50 174 115 50 174 115 50 174 115 50 174 115 50 174 115 50 174 115
54 178 119 54 178 119 54 178 119 54 178 119 54 178 119 54 178 119 54 178 119 54 178 119 54 178 119 54 178 119 54 178 119 54 178 119 54 178 119 54 178 119 54 178 119 54 178 119 54 178 119 54 178 119 54 178 119 54 178 119 54 178 119 54 178 119 54 178 119 54 178 119 54 178 119 54 178 119 54 178 119 54 178 119 54 178 119 54 178 119 54 178 119 54 178 119 54 178 119 54 178 119 54 178 119 54 178 119 54 178 119 54 178 119 54 178 119 54 178 119 54 178 119 54 178 119 54 178 119 54 178 119 54 178 119 54 178 119 54 178 119 54 178 119 54 178 119 54 178 119 54 178 119 54 178 119 54 178 119 54 178 119 54 178 119 54 178 119 54 178 119 54 178 119 54 178 119 54 178 119 54 178 119 54 178 119 54 178 119 54 178 119
58 182 123 58 182 123 58 182 123 58 182 123 58 182 123 58 182 123 58 182 123 58 182 123 58 182 123 58 182 123 58 182 123 58 182 123 58 182 123 58 182 123 58 182 123 58 182 123 58 182 123 58 182 123 58 182 123 58 182 123 58 182 123 58 182 123 58 182 123 58 182 123 58 182 123 58 182 123 58 182 123 58 182 123 58 182 123 58 182 123 58 182 123 58 182 123 58 182 123 58 182 123 58 182 123 58 182 123 58 182 123 58 182 123 58 182 123 58 182 123 58 182 123 58 182 123 58 182 123 58 182 123 58 182 123 58 182 123 58 182 123 58 182 123 58 182 123 58 182 123 58 182 123 58 182 123 58 182 123 58 182 123 58 182 123 58 182 123 58 182 123 58 182 123 58 182 123 58 182 123 58 182 123 58 182 123 58 182 123 58 182 123
62 186 127 62 186 127 62 186 127 62 186 127 62 186 127 62 186 127 62 186 127 62 186 127 62 186 127 62 186 127 62 186 127 62 186 127 62 186 127 62 186 127 62 186 127 62 186 127 62 186 127 62 186 127 62 186 127 62 186 127 62 186 127 62 186 127 62 186 127 62 186 127 62 186 127 62 186 127 62 186 127 62 186 127 62 186 127 62 186 127 62 186 127 62 186 127 62 186 127 62 186 127 62 186 127 62 186 127 62 186 127 62 186 127 62 186 127 62 186 127 62 186 127 62 186 127 62 186 127 62 186 127 62 186 127 62 186 127 62 186 127 62 186 127 62 186 127 62 186 127 62 186 127 62 186 127 62 186 127 62 186 127 62 186 127 62 186 127 62 186 127 62 186 127 62 186 127 62 186 127 62 186 127 62 186 127 62 186 127 62 186 127
66 190 131 66 190 131 66 190 131 66 190 131 66 190 131 66 190 131 66 190 131 66 190 131 66 190 131 66 190 131 66 190 131 66 190 131 66 190 131 66 190 131 66 190 131 66 190 131 66 190 131 66 190 131 66 190 131 66 190 131 66 190 131 66 190 131 66 190 131 66 190 131 66 190 131 66 190 131 66 190 131 66 190 131 66 190 131 66 190 131 66 190 131 66 190 131 66 190 131 66 190 131 66 190 131 66 190 131 66 190 131 66 190 131 66 190 131 66 190 131 66 190 131 66 190 131 66 190 131 66 190 131 66 190 131 66 190 131 66 190 131 66 190 131 66 190 131 66 190 131 66 190 131 66 190 131 66 190 131 66 190 131 66 190 131 66 190 131 66 190 131 66 190 131 66 190 131 66 190 131 66 190 131 66 190 131 66 190 131 66 190 131
70 194 135 70 194 135 70 194 135 70 194 135 70 194 135 70 194 135 70 194 135 70 194 135 70 194 135 70 194 135 70 194 135 70 194 135 70 194 135 70 194 135 70 194 135 70 194 135 70 194 135 70 194 135 70 194 135 70 194 135 70 194 135 70 194 135 70 194 135 70 194 135 70 194 135 70 194 135 70 194 135 70 194 135 70 194 135 70 194 135 70 194 135 70 194 135 70 194 135 70 194 135 70 194 135 70 194 135 70 194 135 70 194 135 70 194 135 70 194 135 70 194 135 70 194 135 70 194 135 70 194 135 70 194 135 70 194 135 70 194 135 70 194 135 70 194 135 70 194 135 70 194 135 70 194 135 70 194 135 70 194 135 70 194 135 70 194 135 70 194 135 70 194 135 70 194 135 70 194 135 70 194 135 70 194 135 70 194 135 70 194 135
74 198 139 74 198 139 74 198 139 74 198 139 74 198 139 74 198 139 74 198 139 74 198 139 74 198 139 74 198 139 74 198 139 74 198 139 74 198 139 74 198 139 74 198 139 74 198 139 74 198 139 74 198 139 74 198 139 74 198 139 74 198 139 74 198 139 74 198 139 74 198 139 74 198 139 74 198 139 74 198 139 74 198 139 74 198 139 74 198 139 74 198 139 74 198 139 74 198 139 74 198 139 74 198 139 74 198 139 74 198 139 74 198 139 74 198 139 74 198 139 74 198 139 74 198 139 74 198 139 74 198 139 74 198 139 74 198 139 74 198 139 74 198 139 74 198 139 74 198 139 74 198 139 74 198 139 74 198 139 74 198 139 74 198 139 74 198 139 74 198 139 74 198 139 74 198 139 74 198 139 74 198 139 74 198 139 74 198 139 74 198 139
78 202 143 78 202 143 78 202 143 78 202 143 78 202 143 78 202 143 78 202 143 78 202 143 78 202 143 78 202 143 78 202 143 78 202 143 78 202 143 78 202 143 78 202 143 78 202 143 78 202 143 78 202 143 78 202 143 78 202 143 78 202 143 78 202 143 78 202 143 78 202 143 78 202 143 78 202 143 78 202 143 78 202 143 78 202 143 78 202 143 78 202 143 78 202 143 78 202 143 78 202 143 78 202 143 78 202 143 78 202 143 78 202 143 78 202 143 78 202 143 78 202 143 78 202 143 78 202 143 78 202 143 78 202 143 78 202 143 78 202 143 78 202 143 78 202 143 78 202 143 78 202 143 78 202 143 78 202 143 78 202 143 78 202 143 78 202 143 78 202 143 78 202 143 78 202 143 78 202 143 78 202 143 78 202 143 78 202 143 78 202 143
82 206 147 82 206 147 82 206 147 82 206 147 82 206 147 82 206 147 82 206 147 82 206 147 82 206 147 82 206 147 82 206 147 82 206 147 82 206 147 82 206 147 82 206 147 82 206 147 82 206 147 82 206 147 82 206 147 82 206 147 82 206 147 82 206 147 82 206 147 82 206 147 82 206 147 82 206 147 82 206 147 82 206 147 82 206 147 82 206 147 82 206 147 82 206 147 82 206 147 82 206 147 82 206 147 82 206 147 82 206 147 82 206 147 82 206 147 82 206 147 82 206 147 82 206 147 82 206 147 82 206 147 82 206 147 82 206 147 82 206 147 82 206 147 82 206 147 82 206 147 82 206 147 82 206 147 82 206 147 82 206 147 82 206 147 82 206 147 82 206 147 82 206 147 82 206 147 82 206 147 82 206 147 82 206 147 82 206 147 82 206 147
86 210 151 86 210 151 86 210 151 86 210 151 86 210 151 86 210 151 86 210 151 86 210 151 86 210 151 86 210 151 86 210 151 86 210 151 86 210 151 86 210 151 86 210 151 86 210 151 86 210 151 86 210 151 86 210 151 86 210 151 86 210 151 86 210 151 86 210 151 86 210 151 86 210 151 86 210 151 86 210 151 86 210 151 86 210 151 86 210 151 86 210 151 86 210 151 86 210 151 86 210 151 86 210 151 86 210 151 86 210 151 86 210 151 86 210 151 86 210 151 86 210 151 86 210 151 86 210 151 86 210 151 86 210 151 86 210 151 86 210 151 86 210 151 86 210 151 86 210 151 86 210 151 86 210 151 86 210 151 86 210 151 86 210 151 86 210 151 86 210 151 86 210 151 86 210 151 86 210 151 86 210 151 86 210 151 86 210 151 86 210 151
90 214 155 90 214 155 90 214 155 90 214 155 90 214 155 90 214 155 90 214 155 90 214 155 90 214 155 90 214 155 90 214 155 90 214 155 90 214 155 90 214 155 90 214 155 90 214 155 90 214 155 90 214 155 90 214 155 90 214 155 90 214 155 90 214 155 90 214 155 90 214 155 90 214 155 90 214 155 90 214 155 90 214 155 90 214 155 90 214 155 90 214 155 90 214 155 90 214 155 90 214 155 90 214 155 90 214 155 90 214 155 90 214 155 90 214 155 90 214 155 90 214 155 90 214 155 90 214 155 90 214 155 90 214 155 90 214 155 90 214 155 90 214 155 90 214 155 90 214 155 90 214 155 90 214 155 90 214 155 90 214 155 90 214 155 90 214 155 90 214 155 90 214 155 90 214 155 90 214 155 90 214 155 90 214 155 90 214 155 90 214 155
94 218 159 94 218 159 94 218 159 94 218 159 94 218 159 94 218 159 94 218 159 94 218 159 94 218 159 94 218 159 94 218 159 94 218 159 94 218 159 94 218 159 94 218 159 94 218 159 94 218 159 94 218 159 94 218 159 94 218 159 94 218 159 94 218 159 94 218 159 94 218 159 94 218 159 94 218 159 94 218 159 94 218 159 94 218 159 94 218 159 94 218 159 94 218 159 94 218 159 94 218 159 94 218 159 94 218 159 94 218 159 94 218 159 94 218 159 94 218 159 94 218 159 94 218 159 94 218 159 94 218 159 94 218 159 94 218 159 94 218 159 94 218 159 94 218 159 94 218 159 94 218 159 94 218 159 94 218 159 94 218 159 94 218 159 94 218 159 94 218 159 94 218 159 94 218 159 94 218 159 94 218 159 94 218 159 94 218 159 94 218 159
98 222 163 98 222 163 98 222 163 98 222 163 98 222 163 98 222 163 98 222 163 98 222 163 98 222 163 98 222 163 98 222 163 98 222 163 98 222 163 98 222 163 98 222 163 98 222 163 98 222 163 98 222 163 98 222 163 98 222 163 98 222 163 98 222 163 98 222 163 98 222 163 98 222 163 98 222 163 98 222 163 98 222 163 98 222 163 98 222 163 98 222 163 98 222 163 98 222 163 98 222 163 98 222 163 98 222 163 98 222 163 98 222 163 98 222 163 98 222 163 98 222 163 98 222 163 98 222 163 98 222 163 98 222 163 98 222 163 98 222 163 98 222 163 98 222 163 98 222 163 98 222 163 98 222 163 98 222 163 98 222 163 98 222 163 98 222 163 98 222 163 98 222 163 98 222 163 98 222 163 98 222 163 98 222 163 98 222 163 98 222 163
102 226 167 102 226 167 102 226 167 102 226 167 102 226 167 102 226 167 102 226 167 102 226 167 102 226 167 102 226 167 102 226 167 102 226 167 102 226 167 102 226 167 102 226 167 102 226 167 102 226 167 102 226 167 102 226 167 102 226 167 102 226 167 102 226 167 102 226 167 102 226 167 102 226 167 102 226 167 102 226 167 102 226 167 102 226 167 102 226 167 102 226 167 102 226 167 102 226 167 102 226 167 102 226 167 102 226 167 102 226 167 102 226 167 102 226 167 102 226 167 102 226 167 102 226 167 102 226 167 102 226 167 102 226 167 102 226 167 102 226 167 102 226 167 102 226 167 102 226 167 102 226 167 102 226 167 102 226 167 102 226 167 102 226 167 102 226 167 102 226 167 102 226 167 102 226 167 102 226 167 102 226 167 102 226 167 102 226 167 102 226 167
106 230 171 106 230 171 106 230 171 106 230 171 106 230 171 106 230 171 106 230 171 106 230 171 106 230 171 106 230 171 106 230 171 106 230 171 106 230 171 106 230 171 106 230 171 106 230 171 106 230 171 106 230 171 106 230 171 106 230 171 106 230 171 106 230 171 106 230 171 106 230 171 106 230 171 106 230 171 106 230 171 106 230 171 106 230 171 106 230 171 106 230 171 106 230 171 106 230 171 106 230 171 106 230 171 106 230 171 106 230 171 106 230 171 106 230 171 106 230 171 106 230 171 106 230 171 106 230 171 106 230 171 106 230 171 106 230 171 106 230 171 106 230 171 106 230 171 106 230 171 106 230 171 106 230 171 106 230 171 106 230 171 106 230 171 106 230 171 106 230 171 106 230 171 106 230 171 106 230 171 106 230 171 106 230 171 106 230 171 106 230 171
110 234 175 110 234 175 110 234 175 110 234 175 110 234 175 110 234 175 110 234 175 110 234 175 110 234 175 110 234 175 110 234 175 110 234 175 110 234 175 110 234 175 110 234 175 110 234 175 110 234 175 110 234 175 110 234 175 110 234 175 110 234 175 110 234 175 110 234 175 110 234 175 110 234 175 110 234 175 110 234 175 110 234 175 110 234 175 110 234 175 110 234 175 110 234 175 110 234 175 110 234 175 110 234 175 110 234 175 110 234 175 110 234 175 110 234 175 110 234 175 110 234 175 110 234 175 110 234 175 110 234 175 110 234 175 110 234 175 110 234 175 110 234 175 110 234 175 110 234 175 110 234 175 110 234 175 110 234 175 110 234 175 110 234 175 110 234 175 110 234 175 110 234 175 110 234 175 110 234 175 110 234 175 110 234 175 110 234 175 110 234 175
114 238 179 114 238 179 114 238 179 114 238 179 114 238 179 114 238 179 114 238 179 114 238 179 114 238 179 114 238 179 114 238 179 114 238 179 114 238 179 114 238 179 114 238 179 114 238 179 114 238 179 114 238 179 114 238 179 114 238 179 114 238 179 114 238 179 114 238 179 114 238 179 114 238 179 114 238 179 114 238 179 114 238 179 114 238 179 114 238 179 114 238 179 114 238 179 114 238 179 114 238 179 114 238 179 114 238 179 114 238 179 114 238 179 114 238 179 114 238 179 114 238 179 114 238 179 114 238 179 114 238 179 114 238 179 114 238 179 114 238 179 114 238 179 114 238 179 114 238 179 114 238 179 114 238 179 114 238 179 114 238 179 114 238 179 114 238 179 114 238 179 114 238 179 114 238 179 114 238 179 114 238 179 114 238 179 114 238 179 114 238 179
118 242 183 118 242 183 118 242 183 118 242 183 118 242 183 118 242 183 118 242 183 118 242 183 118 242 183 118 242 183 118 242 183 118 242 183 118 242 183 118 242 183 118 242 183 118 242 183 118 242 183 118 242 183 118 242 183 118 242 183 118 242 183 118 242 183 118 242 183 118 242 183 118 242 183 118 242 183 118 242 183 118 242 183 118 242 183 118 242 183 118 242 183 118 242 183 118 242 183 118 242 183 118 242 183 118 242 183 118 242 183 118 242 183 118 242 183 118 242 183 118 242 183 118 242 183 118 242 183 118 242 183 118 242 183 118 242 183 118 242 183 118 242 183 118 242 183 118 242 183 118 242 183 118 242 183 118 242 183 118 242 183 118 242 183 118 242 183 118 242 183 118 242 183 118 242 183 118 242 183 118 242 183 118 242 183 118 242 183 118 242 183
122 246 187 122 246 187 122 246 187 122 246 187 122 246 187 122 246 187 122 246 187 122 246 187 122 246 187 122 246 187 122 246 187 122 246 187 122 246 187 122 246 187 122 246 187 122 246 187 122 246 187 122 246 187 122 246 187 122 246 187 122 246 187 122 246 187 122 246 187 122 246 187 122 246 187 122 246 187 122 246 187 122 246 187 122 246 187 122 246 187 122 246 187 122 246 187 122 246 187 122 246 187 122 246 187 122 246 187 122 246 187 122 246 187 122 246 187 122 246 187 122 246 187 122 246 187 122 246 187 122 246 187 122 246 187 122 246 187 122 246 187 122 246 187 122 246 187 122 246 187 122 246 187 122 246 187 122 246 187 122 246 187 122 246 187 122 246 187 122 246 187 122 246 187 122 246 187 122 246 187 122 246 187 122 246 187 122 246 187 122 246 187
126 250 191 126 250 191 126 250 191 126 250 191 126 250 191 126 250 191 126 250 191 126 250 191 126 250 191 126 250 191 126 250 191 126 250 191 126 250 191 126 250 191 126 250 191 126 250 191 126 250 191 126 250 191 126 250 191 126 250 191 126 250 191 126 250 191 126 250 191 126 250 191 126 250 191 126 250 191 126 250 191 126 250 191 126 250 191 126 250 191 126 250 191 126 250 191 126 250 191 126 250 191 126 250 191 126 250 191 126 250 191 126 250 191 126 250 191 126 250 191 126 250 191 126 250 191 126 250 191 126 250 191 126 250 191 126 250 191 126 250 191 126 250 191 126 250 191 126 250 191 126 250 191 126 250 191 126 250 191 126 250 191 126 250 191 126 250 191 126 250 191 126 250 191 126 250 191 126 250 191 126 250 191 126 250 191 126 250 191 126 250 191
130 254 195 130 254 195 130 254 195 130 254 195 130 254 195 130 254 195 130 254 195 130 254 195 130 254 195 130 254 195 130 254 195 130 254 195 130 254 195 130 254 195 130 254 195 130 254 195 130 254 195 130 254 195 130 254 195 130 254 195 130 254 195 130 254 195 130 254 195 130 254 195 130 254 195 130 254 195 130 254 195 130 254 195 130 254 195 130 254 195 130 254 195 130 254 195 130 254 195 130 254 195 130 254 195 130 254 195 130 254 195 130 254 195 130 254 195 130 254 195 130 254 195 130 254 195 130 254 195 130 254 195 130 254 195 130 254 195 130 254 195 130 254 195 130 254 195 130 254 195 130 254 195 130 254 195 130 254 195 130 254 195 130 254 195 130 254 195 130 254 195 130 254 195 130 254 195 130 254 195 130 254 195 130 254 195 130 254 195 130 254 195
134 2 199 134 2 199 134 2 199 134 2 199 134 2 199 134 2 199 134 2 199 134 2 199 134 2 199 134 2 199 134 2 199 134 2 199 134 2 199 134 2 199 134 2 199 134 2 199 134 2 199 134 2 199 134 2 199 134 2 199 134 2 199 134 2 199 134 2 199 134 2 199 134 2 199 134 2 199 134 2 199 134 2 199 134 2 199 134 2 199 134 2 199 134 2 199 134 2 199 134 2 199 134 2 199 134 2 199 134 2 199 134 2 199 134 2 199 134 2 199 134 2 199 134 2 199 134 2 199 134 2 199 134 2 199 134 2 199 134 2 199 134 2 199 134 2 199 134 2 199 134 2 199 134 2 199 134 2 199 134 2 199 134 2 199 134 2 199 134 2 199 134 2 199 134 2 199 134 2 199 134 2 199 134 2 199 134 2 199 134 2 199
138 6 203 138 6 203 138 6 203 138 6 203 138 6 203 138 6 203 138 6 203 138 6 203 138 6 203 138 6 203 138 6 203 138 6 203 138 6 203 138 6 203 138 6 203 138 6 203 138 6 203 138 6 203 138 6 203 138 6 203 138 6 203 138 6 203 138 6 203 138 6 203 138 6 203 138 6 203 138 6 203 138 6 203 138 6 203 138 6 203 138 6 203 138 6 203 138 6 203 138 6 203 138 6 203 138 6 203 138 6 203 138 6 203 138 6 203 138 6 203 138 6 203 138 6 203 138 6 203 138 6 203 138 6 203 138 6 203 138 6 203 138 6 203 138 6 203 138 6 203 138 6 203 138 6 203 138 6 203 138 6 203 138 6 203 138 6 203 138 6 203 138 6 203 138 6 203 138 6 203 138 6 203 138 6 203 138 6 203 138 6 203
142 10 207 142 10 207 142 10 207 142 10 207 142 10 207 142 10 207 142 10 207 142 10 207 142 10 207 142 10 207 142 10 207 142 10 207 142 10 207 142 10 207 142 10 207 142 10 207 142 10 207 142 10 207 142 10 207 142 10 207 142 10 207 142 10 207 142 10 207 142 10 207 142 10 207 142 10 207 142 10 207 142 10 207 142 10 207 142 10 207 142 10 207 142 10 207 142 10 207 142 10 207 142 10 207 142 10 207 142 10 207 142 10 207 142 10 207 142 10 207 142 10 207 142 10 207 142 10 207 142 10 207 142 10 207 142 10 207 142 10 207 142 10 207 142 10 207 142 10 207 142 10 207 142 10 207 142 10 207 142 10 207 142 10 207 142 10 207 142 10 207 142 10 207 142 10 207 142 10 207 142 10 207 142 10 207 142 10 207 142 10 207
146 14 211 146 14 211 146 14 211 146 14 211 146 14 211 146 14 211 146 14 211 146 14 211 146 14 211 146 14 211 146 14 211 146 14 211 146 14 211 146 14 211 146 14 211 146 14 211 146 14 211 146 14 211 146 14 211 146 14 211 146 14 211 146 14 211 146 14 211 146 14 211 146 14 211 146 14 211 146 14 211 146 14 211 146 14 211 146 14 211 146 14 211 146 14 211 146 14 211 146 14 211 146 14 211 146 14 211 146 14 211 146 14 211 146 14 211 146 14 211 146 14 211 146 14 211 146 14 211 146 14 211 146 14 211 146 14 211 146 14 211 146 14 211 146 14 211 146 14 211 146 14 211 146 14 211 146 14 211 146 14 211 146 14 211 146 14 211 146 14 211 146 14 211 146 14 211 146 14 211 146 14 211 146 14 211 146 14 211 146 14 211
150 18 215 150 18 215 150 18 215 150 18 215 150 18 215 150 18 215 150 18 215 150 18 215 150 18 215 150 18 215 150 18 215 150 18 215 150 18 215 150 18 215 150 18 215 150 18 215 150 18 215 150 18 215 150 18 215 150 18 215 150 18 215 150 18 215 150 18 215 150 18 215 150 18 215 150 18 215 150 18 215 150 18 215 150 18 215 150 18 215 150 18 215 150 18 215 150 18 215 150 18 215 150 18 215 150 18 215 150 18 215 150 18 215 150 18 215 150 18 215 150 18 215 150 18 215 150 18 215 150 18 215 150 18 215 150 18 215 150 18 215 150 18 215 150 18 215 150 18 215 150 18 215 150 18 215 150 18 215 150 18 215 150 18 215 150 18 215 150 18 215 150 18 215 150 18 215 150 18 215 150 18 215 150 18 215 150 18 215 150 18 215
154 22 219 154 22 219 154 22 219 154 22 219 154 22 219 154 22 219 154 22 219 154 22 219 154 22 219 154 22 219 154 22 219 154 22 219 154 22 219 154 22 219 154 22 219 154 22 219 154 22 219 154 22 219 154 22 219 154 22 219 154 22 219 154 22 219 154 22 219 154 22 219 154 22 219 154 22 219 154 22 219 154 22 219 154 22 219 154 22 219 154 22 219 154 22 219 154 22 219 154 22 219 154 22 219 154 22 219 154 22 219 154 22 219 154 22 219 154 22 219 154 22 219 154 22 219 154 22 219 154 22 219 154 22 219 154 22 219 154 22 219 154 22 219 154 22 219 154 22 219 154 22 219 154 22 219 154 22 219 154 22 219 154 22 219 154 22 219 154 22 219 154 22 219 154 22 219 154 22 219 154 22 219 154 22 219 154 22 219 154 22 219
158 26 223 158 26 223 158 26 223 158 26 223 158 26 223 158 26 223 158 26 223 158 26 223 158 26 223 158 26 223 158 26 223 158 26 223 158 26 223 158 26 223 158 26 223 158 26 223 158 26 223 158 26 223 158 26 223 158 26 223 158 26 223 158 26 223 158 26 223 158 26 223 158 26 223 158 26 223 158 26 223 158 26 223 158 26 223 158 26 223 158 26 223 158 26 223 158 26 223 158 26 223 158 26 223 158 26 223 158 26 223 158 26 223 158 26 223 158 26 223 158 26 223 158 26 223 158 26 223 158 26 223 158 26 223 158 26 223 158 26 223 158 26 223 158 26 223 158 26 223 158 26 223 158 26 223 158 26 223 158 26 223 158 26 223 158 26 223 158 26 223 158 26 223 158 26 223 158 26 223 158 26 223 158 26 223 158 26 223 158 26 223
162 30 227 162 30 227 162 30 227 162 30 227 162 30 227 162 30 227 162 30 227 162 30 227 162 30 227 162 30 227 162 30 227 162 30 227 162 30 227 162 30 227 162 30 227 162 30 227 162 30 227 162 30 227 162 30 227 162 30 227 162 30 227 162 30 227 162 30 227 162 30 227 162 30 227 162 30 227 162 30 227 162 30 227 162 30 227 162 30 227 162 30 227 162 30 227 162 30 227 162 30 227 162 30 227 162 30 227 162 30 227 162 30 227 162 30 227 162 30 227 162 30 227 162 30 227 162 30 227 162 30 227 162 30 227 162 30 227 162 30 227 162 30 227 162 30 227 162 30 227 162 30 227 162 30 227 162 30 227 162 30 227 162 30 227 162 30 227 162 30 227 162 30 227 162 30 227 162 30 227 162 30 227 162 30 227 162 30 227 162 30 227
166 34 231 166 34 231 166 34 231 166 34 231 166 34 231 166 34 231 166 34 231 166 34 231 166 34 231 166 34 231 166 34 231 166 34 231 166 34 231 166 34 231 166 34 231 166 34 231 166 34 231 166 34 231 166 34 231 166 34 231 166 34 231 166 34 231 166 34 231 166 34 231 166 34 231 166 34 231 166 34 231 166 34 231 166 34 231 166 34 231 166 34 231 166 34 231 166 34 231 166 34 231 166 34 231 166 34 231 166 34 231 166 34 231 166 34 231 166 34 231 166 34 231 166 34 231 166 34 231 166 34 231 166 34 231 166 34 231 166 34 231 166 34 231 166 34 231 166 34 231 166 34 231 166 34 231 166 34 231 166 34 231 166 34 231 166 34 231 166 34 231 166 34 231 166 34 231 166 34 231 166 34 231 166 34 231 166 34 231 166 34 231
