P3
64 64
255
28 220 134 28 220 134 28 220 134 28 220 134 28 220 134 28 220 134 28 220 134 28 220 134 28 220 134 28 220 134 28 220 134 28 220 134 28 220 134 28 220 134 28 220 134 28 220 134 28 220 134 28 220 134 28 220 134 28 220 134 28 220 134 28 220 134 28 220 134 28 220 134 28 220 134 28 220 134 28 220 134 28 220 134 28 220 134 28 220 134 28 220 134 28 220 134 28 220 134 28 220 134 28 220 134 28 220 134 28 220 134 28 220 134 28 220 134 28 220 134 28 220 134 28 220 134 28 220 134 28 220 134 28 220 134 28 220 134 28 220 134 28 220 134 28 220 134 28 220 134 28 220 134 28 220 134 28 220 134 28 220 134 28 220 134 28 220 134 28 220 134 28 220 134 28 220 134 28 220 134 28 220 134 28 220 134 28 220 134 28 220 134
32 224 138 32 224 138 32 224 138 32 224 138 32 224 138 32 224 138 32 224 138 32 224 138 32 224 138 32 224 138 32 224 138 32 224 138 32 224 138 32 224 138 32 224 138 32 224 138 32 224 138 32 224 138 32 224 138 32 224 138 32 224 138 32 224 138 32 224 138 32 224 138 32 224 138 32 224 138 32 224 138 32 224 138 32 224 138 32 224 138 32 224 138 32 224 138 32 224 138 32 224 138 32 224 138 32 224 138 32 224 138 32 224 138 32 224 138 32 224 138 32 224 138 32 224 138 32 224 138 32 224 138 32 224 138 32 224 138 32 224 138 32 224 138 32 224 138 32 224 138 32 224 138 32 224 138 32 224 138 32 224 138 32 224 138 32 224 138 32 224 138 32 224 138 32 224 138 32 224 138 32 224 138 32 224 138 32 224 138 32 224 138
36 228 142 36 228 142 36 228 142 36 228 142 36 228 142 36 228 142 36 228 142 36 228 142 36 228 142 36 228 142 36 228 142 36 228 142 36 228 142 36 228 142 36 228 142 36 228 142 36 228 142 36 228 142 36 228 142 36 228 142 36 228 142 36 228 142 36 228 142 36 228 142 36 228 142 36 228 142 36 228 142 36 228 142 36 228 142 36 228 142 36 228 142 36 228 142 36 228 142 36 228 142 36 228 142 36 228 142 36 228 142 36 228 142 36 228 142 36 228 142 36 228 142 36 228 142 36 228 142 36 228 142 36 228 142 36 228 142 36 228 142 36 228 142 36 228 142 36 228 142 36 228 142 36 228 142 36 228 142 36 228 142 36 228 142 36 228 142 36 228 142 36 228 142 36 228 142 36 228 142 36 228 142 36 228 142 36 228 142 36 228 142
40 232 146 40 232 146 40 232 146 40 232 146 40 232 146 40 232 146 40 232 146 40 232 146 40 232 146 40 232 146 40 232 146 40 232 146 40 232 146 40 232 146 40 232 146 40 232 146 40 232 146 40 232 146 40 232 146 40 232 146 40 232 146 40 232 146 40 232 146 40 232 146 40 232 146 40 232 146 40 232 146 40 232 146 40 232 146 40 232 146 40 232 146 40 232 146 40 232 146 40 232 146 40 232 146 40 232 146 40 232 146 40 232 146 40 232 146 40 232 146 40 232 146 40 232 146 40 232 146 40 232 146 40 232 146 40 232 146 40 232 146 40 232 146 40 232 146 40 232 146 40 232 146 40 232 146 40 232 146 40 232 146 40 232 146 40 232 146 40 232 146 40 232 146 40 232 146 40 232 146 40 232 146 40 232 146 40 232 146 40 232 146
44 236 150 44 236 150 44 236 150 44 236 150 44 236 150 44 236 150 44 236 150 44 236 150 44 236 150 44 236 150 44 236 150 44 236 150 44 236 150 44 236 150 44 236 150 44 236 150 44 236 150 44 236 150 44 236 150 44 236 150 44 236 150 44 236 150 44 236 150 44 236 150 44 236 150 44 236 150 44 236 150 44 236 150 44 236 150 44 236 150 44 236 150 44 236 150 44 236 150 44 236 150 44 236 150 44 236 150 44 236 150 44 236 150 44 236 150 44 236 150 44 236 150 44 236 150 44 236 150 44 236 150 44 236 150 44 236 150 44 236 150 44 236 150 44 236 150 44 236 150 44 236 150 44 236 150 44 236 150 44 236 150 44 236 150 44 236 150 44 236 150 44 236 150 44 236 150 44 236 150 44 236 150 44 236 150 44 236 150 44 236 150
48 240 154 48 240 154 48 240 154 48 240 154 48 240 154 48 240 154 48 240 154 48 240 154 48 240 154 48 240 154 48 240 154 48 240 154 48 240 154 48 240 154 48 240 154 48 240 154 48 240 154 48 240 154 48 240 154 48 240 154 48 240 154 48 240 154 48 240 154 48 240 154 48 240 154 48 240 154 48 240 154 48 240 154 48 240 154 48 240 154 48 240 154 48 240 154 48 240 154 48 240 154 48 240 154 48 240 154 48 240 154 48 240 154 48 240 154 48 240 154 48 240 154 48 240 154 48 240 154 48 240 154 48 240 154 48 240 154 48 240 154 48 240 154 48 240 154 48 240 154 48 240 154 48 240 154 48 240 154 48 240 154 48 240 154 48 240 154 48 240 154 48 240 154 48 240 154 48 240 154 48 240 154 48 240 154 48 240 154 48 240 154
52 244 158 52 244 158 52 244 158 52 244 158 52 244 158 52 244 158 52 244 158 52 244 158 52 244 158 52 244 158 52 244 158 52 244 158 52 244 158 52 244 158 52 244 158 52 244 158 52 244 158 52 244 158 52 244 158 52 244 158 52 244 158 52 244 158 52 244 158 52 244 158 52 244 158 52 244 158 52 244 158 52 244 158 52 244 158 52 244 158 52 244 158 52 244 158 52 244 158 52 244 158 52 244 158 52 244 158 52 244 158 52 244 158 52 244 158 52 244 158 52 244 158 52 244 158 52 244 158 52 244 158 52 244 158 52 244 158 52 244 158 52 244 158 52 244 158 52 244 158 52 244 158 52 244 158 52 244 158 52 244 158 52 244 158 52 244 158 52 244 158 52 244 158 52 244 158 52 244 158 52 244 158 52 244 158 52 244 158 52 244 158
56 248 162 56 248 162 56 248 162 56 248 162 56 248 162 56 248 162 56 248 162 56 248 162 56 248 162 56 248 162 56 248 162 56 248 162 56 248 162 56 248 162 56 248 162 56 248 162 56 248 162 56 248 162 56 248 162 56 248 162 56 248 162 56 248 162 56 248 162 56 248 162 56 248 162 56 248 162 56 248 162 56 248 162 56 248 162 56 248 162 56 248 162 56 248 162 56 248 162 56 248 162 56 248 162 56 248 162 56 248 162 56 248 162 56 248 162 56 248 162 56 248 162 56 248 162 56 248 162 56 248 162 56 248 162 56 248 162 56 248 162 56 248 162 56 248 162 56 248 162 56 248 162 56 248 162 56 248 162 56 248 162 56 248 162 56 248 162 56 248 162 56 248 162 56 248 162 56 248 162 56 248 162 56 248 162 56 248 162 56 248 162
60 252 166 60 252 166 60 252 166 60 252 166 60 252 166 60 252 166 60 252 166 60 252 166 60 252 166 60 252 166 60 252 166 60 252 166 60 252 166 60 252 166 60 252 166 60 252 166 60 252 166 60 252 166 60 252 166 60 252 166 60 252 166 60 252 166 60 252 166 60 252 166 60 252 166 60 252 166 60 252 166 60 252 166 60 252 166 60 252 166 60 252 166 60 252 166 60 252 166 60 252 166 60 252 166 60 252 166 60 252 166 60 252 166 60 252 166 60 252 166 60 252 166 60 252 166 60 252 166 60 252 166 60 252 166 60 252 166 60 252 166 60 252 166 60 252 166 60 252 166 60 252 166 60 252 166 60 252 166 60 252 166 60 252 166 60 252 166 60 252 166 60 252 166 60 252 166 60 252 166 60 252 166 60 252 166 60 252 166 60 252 166
64 0 170 64 0 170 64 0 170 64 0 170 64 0 170 64 0 170 64 0 170 64 0 170 64 0 170 64 0 170 64 0 170 64 0 170 64 0 170 64 0 170 64 0 170 64 0 170 64 0 170 64 0 170 64 0 170 64 0 170 64 0 170 64 0 170 64 0 170 64 0 170 64 0 170 64 0 170 64 0 170 64 0 170 64 0 170 64 0 170 64 0 170 64 0 170 64 0 170 64 0 170 64 0 170 64 0 170 64 0 170 64 0 170 64 0 170 64 0 170 64 0 170 64 0 170 64 0 170 64 0 170 64 0 170 64 0 170 64 0 170 64 0 170 64 0 170 64 0 170 64 0 170 64 0 170 64 0 170 64 0 170 64 0 170 64 0 170 64 0 170 64 0 170 64 0 170 64 0 170 64 0 170 64 0 170 64 0 170 64 0 170
68 4 174 68 4 174 68 4 174 68 4 174 68 4 174 68 4 174 68 4 174 68 4 174 68 4 174 68 4 174 68 4 174 68 4 174 68 4 174 68 4 174 68 4 174 68 4 174 68 4 174 68 4 174 68 4 174 68 4 174 68 4 174 68 4 174 68 4 174 68 4 174 68 4 174 68 4 174 68 4 174 68 4 174 68 4 174 68 4 174 68 4 174 68 4 174 68 4 174 68 4 174 68 4 174 68 4 174 68 4 174 68 4 174 68 4 174 68 4 174 68 4 174 68 4 174 68 4 174 68 4 174 68 4 174 68 4 174 68 4 174 68 4 174 68 4 174 68 4 174 68 4 174 68 4 174 68 4 174 68 4 174 68 4 174 68 4 174 68 4 174 68 4 174 68 4 174 68 4 174 68 4 174 68 4 174 68 4 174 68 4 174
72 8 178 72 8 178 72 8 178 72 8 178 72 8 178 72 8 178 72 8 178 72 8 178 72 8 178 72 8 178 72 8 178 72 8 178 72 8 178 72 8 178 72 8 178 72 8 178 72 8 178 72 8 178 72 8 178 72 8 178 72 8 178 72 8 178 72 8 178 72 8 178 72 8 178 72 8 178 72 8 178 72 8 178 72 8 178 72 8 178 72 8 178 72 8 178 72 8 178 72 8 178 72 8 178 72 8 178 72 8 178 72 8 178 72 8 178 72 8 178 72 8 178 72 8 178 72 8 178 72 8 178 72 8 178 72 8 178 72 8 178 72 8 178 72 8 178 72 8 178 72 8 178 72 8 178 72 8 178 72 8 178 72 8 178 72 8 178 72 8 178 72 8 178 72 8 178 72 8 178 72 8 178 72 8 178 72 8 178 72 8 178
76 12 182 76 12 182 76 12 182 76 12 182 76 12 182 76 12 182 76 12 182 76 12 182 76 12 182 76 12 182 76 12 182 76 12 182 76 12 182 76 12 182 76 12 182 76 12 182 76 12 182 76 12 182 76 12 182 76 12 182 76 12 182 76 12 182 76 12 182 76 12 182 76 12 182 76 12 182 76 12 182 76 12 182 76 12 182 76 12 182 76 12 182 76 12 182 76 12 182 76 12 182 76 12 182 76 12 182 76 12 182 76 12 182 76 12 182 76 12 182 76 12 182 76 12 182 76 12 182 76 12 182 76 12 182 76 12 182 76 12 182 76 12 182 76 12 182 76 12 182 76 12 182 76 12 182 76 12 182 76 12 182 76 12 182 76 12 182 76 12 182 76 12 182 76 12 182 76 12 182 76 12 182 76 12 182 76 12 182 76 12 182
80 16 186 80 16 186 80 16 186 80 16 186 80 16 186 80 16 186 80 16 186 80 16 186 80 16 186 80 16 186 80 16 186 80 16 186 80 16 186 80 16 186 80 16 186 80 16 186 80 16 186 80 16 186 80 16 186 80 16 186 80 16 186 80 16 186 80 16 186 80 16 186 80 16 186 80 16 186 80 16 186 80 16 186 80 16 186 80 16 186 80 16 186 80 16 186 80 16 186 80 16 186 80 16 186 80 16 186 80 16 186 80 16 186 80 16 186 80 16 186 80 16 186 80 16 186 80 16 186 80 16 186 80 16 186 80 16 186 80 16 186 80 16 186 80 16 186 80 16 186 80 16 186 80 16 186 80 16 186 80 16 186 80 16 186 80 16 186 80 16 186 80 16 186 80 16 186 80 16 186 80 16 186 80 16 186 80 16 186 80 16 186
84 20 190 84 20 190 84 20 190 84 20 190 84 20 190 84 20 190 84 20 190 84 20 190 84 20 190 84 20 190 84 20 190 84 20 190 84 20 190 84 20 190 84 20 190 84 20 190 84 20 190 84 20 190 84 20 190 84 20 190 84 20 190 84 20 190 84 20 190 84 20 190 84 20 190 84 20 190 84 20 190 84 20 190 84 20 190 84 20 190 84 20 190 84 20 190 84 20 190 84 20 190 84 20 190 84 20 190 84 20 190 84 20 190 84 20 190 84 20 190 84 20 190 84 20 190 84 20 190 84 20 190 84 20 190 84 20 190 84 20 190 84 20 190 84 20 190 84 20 190 84 20 190 84 20 190 84 20 190 84 20 190 84 20 190 84 20 190 84 20 190 84 20 190 84 20 190 84 20 190 84 20 190 84 20 190 84 20 190 84 20 190
88 24 194 88 24 194 88 24 194 88 24 194 88 24 194 88 24 194 88 24 194 88 24 194 88 24 194 88 24 194 88 24 194 88 24 194 88 24 194 88 24 194 88 24 194 88 24 194 88 24 194 88 24 194 88 24 194 88 24 194 88 24 194 88 24 194 88 24 194 88 24 194 88 24 194 88 24 194 88 24 194 88 24 194 88 24 194 88 24 194 88 24 194 88 24 194 88 24 194 88 24 194 88 24 194 88 24 194 88 24 194 88 24 194 88 24 194 88 24 194 88 24 194 88 24 194 88 24 194 88 24 194 88 24 194 88 24 194 88 24 194 88 24 194 88 24 194 88 24 194 88 24 194 88 24 194 88 24 194 88 24 194 88 24 194 88 24 194 88 24 194 88 24 194 88 24 194 88 24 194 88 24 194 88 24 194 88 24 194 88 24 194
92 28 198 92 28 198 92 28 198 92 28 198 92 28 198 92 28 198 92 28 198 92 28 198 92 28 198 92 28 198 92 28 198 92 28 198 92 28 198 92 28 198 92 28 198 92 28 198 92 28 198 92 28 198 92 28 198 92 28 198 92 28 198 92 28 198 92 28 198 92 28 198 92 28 198 92 28 198 92 28 198 92 28 198 92 28 198 92 28 198 92 28 198 92 28 198 92 28 198 92 28 198 92 28 198 92 28 198 92 28 198 92 28 198 92 28 198 92 28 198 92 28 198 92 28 198 92 28 198 92 28 198 92 28 198 92 28 198 92 28 198 92 28 198 92 28 198 92 28 198 92 28 198 92 28 198 92 28 198 92 28 198 92 28 198 92 28 198 92 28 198 92 28 198 92 28 198 92 28 198 92 28 198 92 28 198 92 28 198 92 28 198
96 32 202 96 32 202 96 32 202 96 32 202 96 32 202 96 32 202 96 32 202 96 32 202 96 32 202 96 32 202 96 32 202 96 32 202 96 32 202 96 32 202 96 32 202 96 32 202 96 32 202 96 32 202 96 32 202 96 32 202 96 32 202 96 32 202 96 32 202 96 32 202 96 32 202 96 32 202 96 32 202 96 32 202 96 32 202 96 32 202 96 32 202 96 32 202 96 32 202 96 32 202 96 32 202 96 32 202 96 32 202 96 32 202 96 32 202 96 32 202 96 32 202 96 32 202 96 32 202 96 32 202 96 32 202 96 32 202 96 32 202 96 32 202 96 32 202 96 32 202 96 32 202 96 32 202 96 32 202 96 32 202 96 32 202 96 32 202 96 32 202 96 32 202 96 32 202 96 32 202 96 32 202 96 32 202 96 32 202 96 32 202
100 36 206 100 36 206 100 36 206 100 36 206 100 36 206 100 36 206 100 36 206 100 36 206 100 36 206 100 36 206 100 36 206 100 36 206 100 36 206 100 36 206 100 36 206 100 36 206 100 36 206 100 36 206 100 36 206 100 36 206 100 36 206 100 36 206 100 36 206 100 36 206 100 36 206 100 36 206 100 36 206 100 36 206 100 36 206 100 36 206 100 36 206 100 36 206 100 36 206 100 36 206 100 36 206 100 36 206 100 36 206 100 36 206 100 36 206 100 36 206 100 36 206 100 36 206 100 36 206 100 36 206 100 36 206 100 36 206 100 36 206 100 36 206 100 36 206 100 36 206 100 36 206 100 36 206 100 36 206 100 36 206 100 36 206 100 36 206 100 36 206 100 36 206 100 36 206 100 36 206 100 36 206 100 36 206 100 36 206 100 36 206
104 40 210 104 40 210 104 40 210 104 40 210 104 40 210 104 40 210 104 40 210 104 40 210 104 40 210 104 40 210 104 40 210 104 40 210 104 40 210 104 40 210 104 40 210 104 40 210 104 40 210 104 40 210 104 40 210 104 40 210 104 40 210 104 40 210 104 40 210 104 40 210 104 40 210 104 40 210 104 40 210 104 40 210 104 40 210 104 40 210 104 40 210 104 40 210 104 40 210 104 40 210 104 40 210 104 40 210 104 40 210 104 40 210 104 40 210 104 40 210 104 40 210 104 40 210 104 40 210 104 40 210 104 40 210 104 40 210 104 40 210 104 40 210 104 40 210 104 40 210 104 40 210 104 40 210 104 40 210 104 40 210 104 40 210 104 40 210 104 40 210 104 40 210 104 40 210 104 40 210 104 40 210 104 40 210 104 40 210 104 40 210
108 44 214 108 44 214 108 44 214 108 44 214 108 44 214 108 44 214 108 44 214 108 44 214 108 44 214 108 44 214 108 44 214 108 44 214 108 44 214 108 44 214 108 44 214 108 44 214 108 44 214 108 44 214 108 44 214 108 44 214 108 44 214 108 44 214 108 44 214 108 44 214 108 44 214 108 44 214 108 44 214 108 44 214 108 44 214 108 44 214 108 44 214 108 44 214 108 44 214 108 44 214 108 44 214 108 44 214 108 44 214 108 44 214 108 44 214 108 44 214 108 44 214 108 44 214 108 44 214 108 44 214 108 44 214 108 44 214 108 44 214 108 44 214 108 44 214 108 44 214 108 44 214 108 44 214 108 44 214 108 44 214 108 44 214 108 44 214 108 44 214 108 44 214 108 44 214 108 44 214 108 44 214 108 44 214 108 44 214 108 44 214
112 48 218 112 48 218 112 48 218 112 48 218 112 48 218 112 48 218 112 48 218 112 48 218 112 48 218 112 48 218 112 48 218 112 48 218 112 48 218 112 48 218 112 48 218 112 48 218 112 48 218 112 48 218 112 48 218 112 48 218 112 48 218 112 48 218 112 48 218 112 48 218 112 48 218 112 48 218 112 48 218 112 48 218 112 48 218 112 48 218 112 48 218 112 48 218 112 48 218 112 48 218 112 48 218 112 48 218 112 48 218 112 48 218 112 48 218 112 48 218 112 48 218 112 48 218 112 48 218 112 48 218 112 48 218 112 48 218 112 48 218 112 48 218 112 48 218 112 48 218 112 48 218 112 48 218 112 48 218 112 48 218 112 48 218 112 48 218 112 48 218 112 48 218 112 48 218 112 48 218 112 48 218 112 48 218 112 48 218 112 48 218
116 52 222 116 52 222 116 52 222 116 52 222 116 52 222 116 52 222 116 52 222 116 52 222 116 52 222 116 52 222 116 52 222 116 52 222 116 52 222 116 52 222 116 52 222 116 52 222 116 52 222 116 52 222 116 52 222 116 52 222 116 52 222 116 52 222 116 52 222 116 52 222 116 52 222 116 52 222 116 52 222 116 52 222 116 52 222 116 52 222 116 52 222 116 52 222 116 52 222 116 52 222 116 52 222 116 52 222 116 52 222 116 52 222 116 52 222 116 52 222 116 52 222 116 52 222 116 52 222 116 52 222 116 52 222 116 52 222 116 52 222 116 52 222 116 52 222 116 52 222 116 52 222 116 52 222 116 52 222 116 52 222 116 52 222 116 52 222 116 52 222 116 52 222 116 52 222 116 52 222 116 52 222 116 52 222 116 52 222 116 52 222
120 56 226 120 56 226 120 56 226 120 56 226 120 56 226 120 56 226 120 56 226 120 56 226 120 56 226 120 56 226 120 56 226 120 56 226 120 56 226 120 56 226 120 56 226 120 56 226 120 56 226 120 56 226 120 56 226 120 56 226 120 56 226 120 56 226 120 56 226 120 56 226 120 56 226 120 56 226 120 56 226 120 56 226 120 56 226 120 56 226 120 56 226 120 56 226 120 56 226 120 56 226 120 56 226 120 56 226 120 56 226 120 56 226 120 56 226 120 56 226 120 56 226 120 56 226 120 56 226 120 56 226 120 56 226 120 56 226 120 56 226 120 56 226 120 56 226 120 56 226 120 56 226 120 56 226 120 56 226 120 56 226 120 56 226 120 56 226 120 56 226 120 56 226 120 56 226 120 56 226 120 56 226 120 56 226 120 56 226 120 56 226
124 60 230 124 60 230 124 60 230 124 60 230 124 60 230 124 60 230 124 60 230 124 60 230 124 60 230 124 60 230 124 60 230 124 60 230 124 60 230 124 60 230 124 60 230 124 60 230 124 60 230 124 60 230 124 60 230 124 60 230 124 60 230 124 60 230 124 60 230 124 60 230 124 60 230 124 60 230 124 60 230 124 60 230 124 60 230 124 60 230 124 60 230 124 60 230 124 60 230 124 60 230 124 60 230 124 60 230 124 60 230 124 60 230 124 60 230 124 60 230 124 60 230 124 60 230 124 60 230 124 60 230 124 60 230 124 60 230 124 60 230 124 60 230 124 60 230 124 60 230 124 60 230 124 60 230 124 60 230 124 60 230 124 60 230 124 60 230 124 60 230 124 60 230 124 60 230 124 60 230 124 60 230 124 60 230 124 60 230 124 60 230
128 64 234 128 64 234 128 64 234 128 64 234 128 64 234 128 64 234 128 64 234 128 64 234 128 64 234 128 64 234 128 64 234 128 64 234 128 64 234 128 64 234 128 64 234 128 64 234 128 64 234 128 64 234 128 64 234 128 64 234 128 64 234 128 64 234 128 64 234 128 64 234 128 64 234 128 64 234 128 64 234 128 64 234 128 64 234 128 64 234 128 64 234 128 64 234 128 64 234 128 64 234 128 64 234 128 64 234 128 64 234 128 64 234 128 64 234 128 64 234 128 64 234 128 64 234 128 64 234 128 64 234 128 64 234 128 64 234 128 64 234 128 64 234 128 64 234 128 64 234 128 64 234 128 64 234 128 64 234 128 64 234 128 64 234 128 64 234 128 64 234 128 64 234 128 64 234 128 64 234 128 64 234 128 64 234 128 64 234 128 64 234
132 68 238 132 68 238 132 68 238 132 68 238 132 68 238 132 68 238 132 68 238 132 68 238 132 68 238 132 68 238 132 68 238 132 68 238 132 68 238 132 68 238 132 68 238 132 68 238 132 68 238 132 68 238 132 68 238 132 68 238 132 68 238 132 68 238 132 68 238 132 68 238 132 68 238 132 68 238 132 68 238 132 68 238 132 68 238 132 68 238 132 68 238 132 68 238 132 68 238 132 68 238 132 68 238 132 68 238 132 68 238 132 68 238 132 68 238 132 68 238 132 68 238 132 68 238 132 68 238 132 68 238 132 68 238 132 68 238 132 68 238 132 68 238 132 68 238 132 68 238 132 68 238 132 68 238 132 68 238 132 68 238 132 68 238 132 68 238 132 68 238 132 68 238 132 68 238 132 68 238 132 68 238 132 68 238 132 68 238 132 68 238
136 72 242 136 72 242 136 72 242 136 72 242 136 72 242 136 72 242 136 72 242 136 72 242 136 72 242 136 72 242 136 72 242 136 72 242 136 72 242 136 72 242 136 72 242 136 72 242 136 72 242 136 72 242 136 72 242 136 72 242 136 72 242 136 72 242 136 72 242 136 72 242 136 72 242 136 72 242 136 72 242 136 72 242 136 72 242 136 72 242 136 72 242 136 72 242 136 72 242 136 72 242 136 72 242 136 72 242 136 72 242 136 72 242 136 72 242 136 72 242 136 72 242 136 72 242 136 72 242 136 72 242 136 72 242 136 72 242 136 72 242 136 72 242 136 72 242 136 72 242 136 72 242 136 72 242 136 72 242 136 72 242 136 72 242 136 72 242 136 72 242 136 72 242 136 72 242 136 72 242 136 72 242 136 72 242 136 72 242 136 72 242
140 76 246 140 76 246 140 76 246 140 76 246 140 76 246 140 76 246 140 76 246 140 76 246 140 76 246 140 76 246 140 76 246 140 76 246 140 76 246 140 76 246 140 76 246 140 76 246 140 76 246 140 76 246 140 76 246 140 76 246 140 76 246 140 76 246 140 76 246 140 76 246 140 76 246 140 76 246 140 76 246 140 76 246 140 76 246 140 76 246 140 76 246 140 76 246 140 76 246 140 76 246 140 76 246 140 76 246 140 76 246 140 76 246 140 76 246 140 76 246 140 76 246 140 76 246 140 76 246 140 76 246 140 76 246 140 76 246 140 76 246 140 76 246 140 76 246 140 76 246 140 76 246 140 76 246 140 76 246 140 76 246 140 76 246 140 76 246 140 76 246 140 76 246 140 76 246 140 76 246 140 76 246 140 76 246 140 76 246 140 76 246
144 80 250 144 80 250 144 80 250 144 80 250 144 80 250 144 80 250 144 80 250 144 80 250 144 80 250 144 80 250 144 80 250 144 80 250 144 80 250 144 80 250 144 80 250 144 80 250 144 80 250 144 80 250 144 80 250 144 80 250 144 80 250 144 80 250 144 80 250 144 80 250 144 80 250 144 80 250 144 80 250 144 80 250 144 80 250 144 80 250 144 80 250 144 80 250 144 80 250 144 80 250 144 80 250 144 80 250 144 80 250 144 80 250 144 80 250 144 80 250 144 80 250 144 80 250 144 80 250 144 80 250 144 80 250 144 80 250 144 80 250 144 80 250 144 80 250 144 80 250 144 80 250 144 80 250 144 80 250 144 80 250 144 80 250 144 80 250 144 80 250 144 80 250 144 80 250 144 80 250 144 80 250 144 80 250 144 80 250 144 80 250
148 84 254 148 84 254 148 84 254 148 84 254 148 84 254 148 84 254 148 84 254 148 84 254 148 84 254 148 84 254 148 84 254 148 84 254 148 84 254 148 84 254 148 84 254 148 84 254 148 84 254 148 84 254 148 84 254 148 84 254 148 84 254 148 84 254 148 84 254 148 84 254 148 84 254 148 84 254 148 84 254 148 84 254 148 84 254 148 84 254 148 84 254 148 84 254 148 84 254 148 84 254 148 84 254 148 84 254 148 84 254 148 84 254 148 84 254 148 84 254 148 84 254 148 84 254 148 84 254 148 84 254 148 84 254 148 84 254 148 84 254 148 84 254 148 84 254 148 84 254 148 84 254 148 84 254 148 84 254 148 84 254 148 84 254 148 84 254 148 84 254 148 84 254 148 84 254 148 84 254 148 84 254 148 84 254 148 84 254 148 84 254
152 88 2 152 88 2 152 88 2 152 88 2 152 88 2 152 88 2 152 88 2 152 88 2 152 88 2 152 88 2 152 88 2 152 88 2 152 88 2 152 88 2 152 88 2 152 88 2 152 88 2 152 88 2 152 88 2 152 88 2 152 88 2 152 88 2 152 88 2 152 88 2 152 88 2 152 88 2 152 88 2 152 88 2 152 88 2 152 88 2 152 88 2 152 88 2 152 88 2 152 88 2 152 88 2 152 88 2 152 88 2 152 88 2 152 88 2 152 88 2 152 88 2 152 88 2 152 88 2 152 88 2 152 88 2 152 88 2 152 88 2 152 88 2 152 88 2 152 88 2 152 88 2 152 88 2 152 88 2 152 88 2 152 88 2 152 88 2 152 88 2 152 88 2 152 88 2 152 88 2 152 88 2 152 88 2 152 88 2 152 88 2
156 92 6 156 92 6 156 92 6 156 92 6 156 92 6 156 92 6 156 92 6 156 92 6 156 92 6 156 92 6 156 92 6 156 92 6 156 92 6 156 92 6 156 92 6 156 92 6 156 92 6 156 92 6 156 92 6 156 92 6 156 92 6 156 92 6 156 92 6 156 92 6 156 92 6 156 92 6 156 92 6 156 92 6 156 92 6 156 92 6 156 92 6 156 92 6 156 92 6 156 92 6 156 92 6 156 92 6 156 92 6 156 92 6 156 92 6 156 92 6 156 92 6 156 92 6 156 92 6 156 92 6 156 92 6 156 92 6 156 92 6 156 92 6 156 92 6 156 92 6 156 92 6 156 92 6 156 92 6 156 92 6 156 92 6 156 92 6 156 92 6 156 92 6 156 92 6 156 92 6 156 92 6 156 92 6 156 92 6 156 92 6
160 96 10 160 96 10 160 96 10 160 96 10 160 96 10 160 96 10 160 96 10 160 96 10 160 96 10 160 96 10 160 96 10 160 96 10 160 96 10 160 96 10 160 96 10 160 96 10 160 96 10 160 96 10 160 96 10 160 96 10 160 96 10 160 96 10 160 96 10 160 96 10 160 96 10 160 96 10 160 96 10 160 96 10 160 96 10 160 96 10 160 96 10 160 96 10 160 96 10 160 96 10 160 96 10 160 96 10 160 96 10 160 96 10 160 96 10 160 96 10 160 96 10 160 96 10 160 96 10 160 96 10 160 96 10 160 96 10 160 96 10 160 96 10 160 96 10 160 96 10 160 96 10 160 96 10 160 96 10 160 96 10 160 96 10 160 96 10 160 96 10 160 96 10 160 96 10 160 96 10 160 96 10 160 96 10 160 96 10 160 96 10
164 100 14 164 100 14 164 100 14 164 100 14 164 100 14 164 100 14 164 100 14 164 100 14 164 100 14 164 100 14 164 100 14 164 100 14 164 100 14 164 100 14 164 100 14 164 100 14 164 100 14 164 100 14 164 100 14 164 100 14 164 100 14 164 100 14 164 100 14 164 100 14 164 100 14 164 100 14 164 100 14 164 100 14 164 100 14 164 100 14 164 100 14 164 100 14 164 100 14 164 100 14 164 100 14 164 100 14 164 100 14 164 100 14 164 100 14 164 100 14 164 100 14 164 100 14 164 100 14 164 100 14 164 100 14 164 100 14 164 100 14 164 100 14 164 100 14 164 100 14 164 100 14 164 100 14 164 100 14 164 100 14 164 100 14 164 100 14 164 100 14 164 100 14 164 100 14 164 100 14 164 100 14 164 100 14 164 100 14 164 100 14
168 104 18 168 104 18 168 104 18 168 104 18 168 104 18 168 104 18 168 104 18 168 104 18 168 104 18 168 104 18 168 104 18 168 104 18 168 104 18 168 104 18 168 104 18 168 104 18 168 104 18 168 104 18 168 104 18 168 104 18 168 104 18 168 104 18 168 104 18 168 104 18 168 104 18 168 104 18 168 104 18 168 104 18 168 104 18 168 104 18 168 104 18 168 104 18 168 104 18 168 104 18 168 104 18 168 104 18 168 104 18 168 104 18 168 104 18 168 104 18 168 104 18 168 104 18 168 104 18 168 104 18 168 104 18 168 104 18 168 104 18 168 104 18 168 104 18 168 104 18 168 104 18 168 104 18 168 104 18 168 104 18 168 104 18 168 104 18 168 104 18 168 104 18 168 104 18 168 104 18 168 104 18 168 104 18 168 104 18 168 104 18
172 108 22 172 108 22 172 108 22 172 108 22 172 108 22 172 108 22 172 108 22 172 108 22 172 108 22 172 108 22 172 108 22 172 108 22 172 108 22 172 108 22 172 108 22 172 108 22 172 108 22 172 108 22 172 108 22 172 108 22 172 108 22 172 108 22 172 108 22 172 108 22 172 108 22 172 108 22 172 108 22 172 108 22 172 108 22 172 108 22 172 108 22 172 108 22 172 108 22 172 108 22 172 108 22 172 108 22 172 108 22 172 108 22 172 108 22 172 108 22 172 108 22 172 108 22 172 108 22 172 108 22 172 108 22 172 108 22 172 108 22 172 108 22 172 108 22 172 108 22 172 108 22 172 108 22 172 108 22 172 108 22 172 108 22 172 108 22 172 108 22 172 108 22 172 108 22 172 108 22 172 108 22 172 108 22 172 108 22 172 108 22
176 112 26 176 112 26 176 112 26 176 112 26 176 112 26 176 112 26 176 112 26 176 112 26 176 112 26 176 112 26 176 112 26 176 112 26 176 112 26 176 112 26 176 112 26 176 112 26 176 112 26 176 112 26 176 112 26 176 112 26 176 112 26 176 112 26 176 112 26 176 112 26 176 112 26 176 112 26 176 112 26 176 112 26 176 112 26 176 112 26 176 112 26 176 112 26 176 112 26 176 112 26 176 112 26 176 112 26 176 112 26 176 112 26 176 112 26 176 112 26 176 112 26 176 112 26 176 112 26 176 112 26 176 112 26 176 112 26 176 112 26 176 112 26 176 112 26 176 112 26 176 112 26 176 112 26 176 112 26 176 112 26 176 112 26 176 112 26 176 112 26 176 112 26 176 112 26 176 112 26 176 112 26 176 112 26 176 112 26 176 112 26
180 116 30 180 116 30 180 116 30 180 116 30 180 116 30 180 116 30 180 116 30 180 116 30 180 116 30 180 116 30 180 116 30 180 116 30 180 116 30 180 116 30 180 116 30 180 116 30 180 116 30 180 116 30 180 116 30 180 116 30 180 116 30 180 116 30 180 116 30 180 116 30 180 116 30 180 116 30 180 116 30 180 116 30 180 116 30 180 116 30 180 116 30 180 116 30 180 116 30 180 116 30 180 116 30 180 116 30 180 116 30 180 116 30 180 116 30 180 116 30 180 116 30 180 116 30 180 116 30 180 116 30 180 116 30 180 116 30 180 116 30 180 116 30 180 116 30 180 116 30 180 116 30 180 116 30 180 116 30 180 116 30 180 116 30 180 116 30 180 116 30 180 116 30 180 116 30 180 116 30 180 116 30 180 116 30 180 116 30 180 116 30
184 120 34 184 120 34 184 120 34 184 120 34 184 120 34 184 120 34 184 120 34 184 120 34 184 120 34 184 120 34 184 120 34 184 120 34 184 120 34 184 120 34 184 120 34 184 120 34 184 120 34 184 120 34 184 120 34 184 120 34 184 120 34 184 120 34 184 120 34 184 120 34 184 120 34 184 120 34 184 120 34 184 120 34 184 120 34 184 120 34 184 120 34 184 120 34 184 120 34 184 120 34 184 120 34 184 120 34 184 120 34 184 120 34 184 120 34 184 120 34 184 120 34 184 120 34 184 120 34 184 120 34 184 120 34 184 120 34 184 120 34 184 120 34 184 120 34 184 120 34 184 120 34 184 120 34 184 120 34 184 120 34 184 120 34 184 120 34 184 120 34 184 120 34 184 120 34 184 120 34 184 120 34 184 120 34 184 120 34 184 120 34
188 124 38 188 124 38 188 124 38 188 124 38 188 124 38 188 124 38 188 124 38 188 124 38 188 124 38 188 124 38 188 124 38 188 124 38 188 124 38 188 124 38 188 124 38 188 124 38 188 124 38 188 124 38 188 124 38 188 124 38 188 124 38 188 124 38 188 124 38 188 124 38 188 124 38 188 124 38 188 124 38 188 124 38 188 124 38 188 124 38 188 124 38 188 124 38 188 124 38 188 124 38 188 124 38 188 124 38 188 124 38 188 124 38 188 124 38 188 124 38 188 124 38 188 124 38 188 124 38 188 124 38 188 124 38 188 124 38 188 124 38 188 124 38 188 124 38 188 124 38 188 124 38 188 124 38 188 124 38 188 124 38 188 124 38 188 124 38 188 124 38 188 124 38 188 124 38 188 124 38 188 124 38 188 124 38 188 124 38 188 124 38
192 128 42 192 128 42 192 128 42 192 128 42 192 128 42 192 128 42 192 128 42 192 128 42 192 128 42 192 128 42 192 128 42 192 128 42 192 128 42 192 128 42 192 128 42 192 128 42 192 128 42 192 128 42 192 128 42 192 128 42 192 128 42 192 128 42 192 128 42 192 128 42 192 128 42 192 128 42 192 128 42 192 128 42 192 128 42 192 128 42 192 128 42 192 128 42 192 128 42 192 128 42 192 128 42 192 128 42 192 128 42 192 128 42 192 128 42 192 128 42 192 128 42 192 128 42 192 128 42 192 128 42 192 128 42 192 128 42 192 128 42 192 128 42 192 128 42 192 128 42 192 128 42 192 128 42 192 128 42 192 128 42 192 128 42 192 128 42 192 128 42 192 128 42 192 128 42 192 128 42 192 128 42 192 128 42 192 128 42 192 128 42
196 132 46 196 132 46 196 132 46 196 132 46 196 132 46 196 132 46 196 132 46 196 132 46 196 132 46 196 132 46 196 132 46 196 132 46 196 132 46 196 132 46 196 132 46 196 132 46 196 132 46 196 132 46 196 132 46 196 132 46 196 132 46 196 132 46 196 132 46 196 132 46 196 132 46 196 132 46 196 132 46 196 132 46 196 132 46 196 132 46 196 132 46 196 132 46 196 132 46 196 132 46 196 132 46 196 132 46 196 132 46 196 132 46 196 132 46 196 132 46 196 132 46 196 132 46 196 132 46 196 132 46 196 132 46 196 132 46 196 132 46 196 132 46 196 132 46 196 132 46 196 132 46 196 132 46 196 132 46 196 132 46 196 132 46 196 132 46 196 132 46 196 132 46 196 132 46 196 132 46 196 132 46 196 132 46 196 132 46 196 132 46
200 136 50 200 136 50 200 136 50 200 136 50 200 136 50 200 136 50 200 136 50 200 136 50 200 136 50 200 136 50 200 136 50 200 136 50 200 136 50 200 136 50 200 136 50 200 136 50 200 136 50 200 136 50 200 136 50 200 136 50 200 136 50 200 136 50 200 136 50 200 136 50 200 136 50 200 136 50 200 136 50 200 136 50 200 136 50 200 136 50 200 136 50 200 136 50 200 136 50 200 136 50 200 136 50 200 136 50 200 136 50 200 136 50 200 136 50 200 136 50 200 136 50 200 136 50 200 136 50 200 136 50 200 136 50 200 136 50 200 136 50 200 136 50 200 136 50 200 136 50 200 136 50 200 136 50 200 136 50 200 136 50 200 136 50 200 136 50 200 136 50 200 136 50 200 136 50 200 136 50 200 136 50 200 136 50 200 136 50 200 136 50
204 140 54 204 140 54 204 140 54 204 140 54 204 140 54 204 140 54 204 140 54 204 140 54 204 140 54 204 140 54 204 140 54 204 140 54 204 140 54 204 140 54 204 140 54 204 140 54 204 140 54 204 140 54 204 140 54 204 140 54 204 140 54 204 140 54 204 140 54 204 140 54 204 140 54 204 140 54 204 140 54 204 140 54 204 140 54 204 140 54 204 140 54 204 140 54 204 140 54 204 140 54 204 140 54 204 140 54 204 140 54 204 140 54 204 140 54 204 140 54 204 140 54 204 140 54 204 140 54 204 140 54 204 140 54 204 140 54 204 140 54 204 140 54 204 140 54 204 140 54 204 140 54 204 140 54 204 140 54 204 140 54 204 140 54 204 140 54 204 140 54 204 140 54 204 140 54 204 140 54 204 140 54 204 140 54 204 140 54 204 140 54
208 144 58 208 144 58 208 144 58 208 144 58 208 144 58 208 144 58 208 144 58 208 144 58 208 144 58 208 144 58 208 144 58 208 144 58 208 144 58 208 144 58 208 144 58 208 144 58 208 144 58 208 144 58 208 144 58 208 144 58 208 144 58 208 144 58 208 144 58 208 144 58 208 144 58 208 144 58 208 144 58 208 144 58 208 144 58 208 144 58 208 144 58 208 144 58 208 144 58 208 144 58 208 144 58 208 144 58 208 144 58 208 144 58 208 144 58 208 144 58 208 144 58 208 144 58 208 144 58 208 144 58 208 144 58 208 144 58 208 144 58 208 144 58 208 144 58 208 144 58 208 144 58 208 144 58 208 144 58 208 144 58 208 144 58 208 144 58 208 144 58 208 144 58 208 144 58 208 144 58 208 144 58 208 144 58 208 144 58 208 144 58
212 148 62 212 148 62 212 148 62 212 148 62 212 148 62 212 148 62 212 148 62 212 148 62 212 148 62 212 148 62 212 148 62 212 148 62 212 148 62 212 148 62 212 148 62 212 148 62 212 148 62 212 148 62 212 148 62 212 148 62 212 148 62 212 148 62 212 148 62 212 148 62 212 148 62 212 148 62 212 148 62 212 148 62 212 148 62 212 148 62 212 148 62 212 148 62 212 148 62 212 148 62 212 148 62 212 148 62 212 148 62 212 148 62 212 148 62 212 148 62 212 148 62 212 148 62 212 148 62 212 148 62 212 148 62 212 148 62 212 148 62 212 148 62 212 148 62 212 148 62 212 148 62 212 148 62 212 148 62 212 148 62 212 148 62 212 148 62 212 148 62 212 148 62 212 148 62 212 148 62 212 148 62 212 148 62 212 148 62 212 148 62
216 152 66 216 152 66 216 152 66 216 152 66 216 152 66 216 152 66 216 152 66 216 152 66 216 152 66 216 152 66 216 152 66 216 152 66 216 152 66 216 152 66 216 152 66 216 152 66 216 152 66 216 152 66 216 152 66 216 152 66 216 152 66 216 152 66 216 152 66 216 152 66 216 152 66 216 152 66 216 152 66 216 152 66 216 152 66 216 152 66 216 152 66 216 152 66 216 152 66 216 152 66 216 152 66 216 152 66 216 152 66 216 152 66 216 152 66 216 152 66 216 152 66 216 152 66 216 152 66 216 152 66 216 152 66 216 152 66 216 152 66 216 152 66 216 152 66 216 152 66 216 152 66 216 152 66 216 152 66 216 152 66 216 152 66 216 152 66 216 152 66 216 152 66 216 152 66 216 152 66 216 152 66 216 152 66 216 152 66 216 152 66
220 156 70 220 156 70 220 156 70 220 156 70 220 156 70 220 156 70 220 156 70 220 156 70 220 156 70 220 156 70 220 156 70 220 156 70 220 156 70 220 156 70 220 156 70 220 156 70 220 156 70 220 156 70 220 156 70 220 156 70 220 156 70 220 156 70 220 156 70 220 156 70 220 156 70 220 156 70 220 156 70 220 156 70 220 156 70 220 156 70 220 156 70 220 156 70 220 156 70 220 156 70 220 156 70 220 156 70 220 156 70 220 156 70 220 156 70 220 156 70 220 156 70 220 156 70 220 156 70 220 156 70 220 156 70 220 156 70 220 156 70 220 156 70 220 156 70 220 156 70 220 156 70 220 156 70 220 156 70 220 156 70 220 156 70 220 156 70 220 156 70 220 156 70 220 156 70 220 156 70 220 156 70 220 156 70 220 156 70 220 156 70
224 160 74 224 160 74 224 160 74 224 160 74 224 160 74 224 160 74 224 160 74 224 160 74 224 160 74 224 160 74 224 160 74 224 160 74 224 160 74 224 160 74 224 160 74 224 160 74 224 160 74 224 160 74 224 160 74 224 160 74 224 160 74 224 160 74 224 160 74 224 160 74 224 160 74 224 160 74 224 160 74 224 160 74 224 160 74 224 160 74 224 160 74 224 160 74 224 160 74 224 160 74 224 160 74 224 160 74 224 160 74 224 160 74 224 160 74 224 160 74 224 160 74 224 160 74 224 160 74 224 160 74 224 160 74 224 160 74 224 160 74 224 160 74 224 160 74 224 160 74 224 160 74 224 160 74 224 160 74 224 160 74 224 160 74 224 160 74 224 160 74 224 160 74 224 160 74 224 160 74 224 160 74 224 160 74 224 160 74 224 160 74
228 164 78 228 164 78 228 164 78 228 164 78 228 164 78 228 164 78 228 164 78 228 164 78 228 164 78 228 164 78 228 164 78 228 164 78 228 164 78 228 164 78 228 164 78 228 164 78 228 164 78 228 164 78 228 164 78 228 164 78 228 164 78 228 164 78 228 164 78 228 164 78 228 164 78 228 164 78 228 164 78 228 164 78 228 164 78 228 164 78 228 164 78 228 164 78 228 164 78 228 164 78 228 164 78 228 164 78 228 164 78 228 164 78 228 164 78 228 164 78 228 164 78 228 164 78 228 164 78 228 164 78 228 164 78 228 164 78 228 164 78 228 164 78 228 164 78 228 164 78 228 164 78 228 164 78 228 164 78 228 164 78 228 164 78 228 164 78 228 164 78 228 164 78 228 164 78 228 164 78 228 164 78 228 164 78 228 164 78 228 164 78
232 168 82 232 168 82 232 168 82 232 168 82 232 168 82 232 168 82 232 168 82 232 168 82 232 168 82 232 168 82 232 168 82 232 168 82 232 168 82 232 168 82 232 168 82 232 168 82 232 168 82 232 168 82 232 168 82 232 168 82 232 168 82 232 168 82 232 168 82 232 168 82 232 168 82 232 168 82 232 168 82 232 168 82 232 168 82 232 168 82 232 168 82 232 168 82 232 168 82 232 168 82 232 168 82 232 168 82 232 168 82 232 168 82 232 168 82 232 168 82 232 168 82 232 168 82 232 168 82 232 168 82 232 168 82 232 168 82 232 168 82 232 168 82 232 168 82 232 168 82 232 168 82 232 168 82 232 168 82 232 168 82 232 168 82 232 168 82 232 168 82 232 168 82 232 168 82 232 168 82 232 168 82 232 168 82 232 168 82 232 168 82
236 172 86 236 172 86 236 172 86 236 172 86 236 172 86 236 172 86 236 172 86 236 172 86 236 172 86 236 172 86 236 172 86 236 172 86 236 172 86 236 172 86 236 172 86 236 172 86 236 172 86 236 172 86 236 172 86 236 172 86 236 172 86 236 172 86 236 172 86 236 172 86 236 172 86 236 172 86 236 172 86 236 172 86 236 172 86 236 172 86 236 172 86 236 172 86 236 172 86 236 172 86 236 172 86 236 172 86 236 172 86 236 172 86 236 172 86 236 172 86 236 172 86 236 172 86 236 172 86 236 172 86 236 172 86 236 172 86 236 172 86 236 172 86 236 172 86 236 172 86 236 172 86 236 172 86 236 172 86 236 172 86 236 172 86 236 172 86 236 172 86 236 172 86 236 172 86 236 172 86 236 172 86 236 172 86 236 172 86 236 172 86
240 176 90 240 176 90 240 176 90 240 176 90 240 176 90 240 176 90 240 176 90 240 176 90 240 176 90 240 176 90 240 176 90 240 176 90 240 176 90 240 176 90 240 176 90 240 176 90 240 176 90 240 176 90 240 176 90 240 176 90 240 176 90 240 176 90 240 176 90 240 176 90 240 176 90 240 176 90 240 176 90 240 176 90 240 176 90 240 176 90 240 176 90 240 176 90 240 176 90 240 176 90 240 176 90 240 176 90 240 176 90 240 176 90 240 176 90 240 176 90 240 176 90 240 176 90 240 176 90 240 176 90 240 176 90 240 176 90 240 176 90 240 176 90 240 176 90 240 176 90 240 176 90 240 176 90 240 176 90 240 176 90 240 176 90 240 176 90 240 176 90 240 176 90 240 176 90 240 176 90 240 176 90 240 176 90 240 176 90 240 176 90
244 180 94 244 180 94 244 180 94 244 180 94 244 180 94 244 180 94 244 180 94 244 180 94 244 180 94 244 180 94 244 180 94 244 180 94 244 180 94 244 180 94 244 180 94 244 180 94 244 180 94 244 180 94 244 180 94 244 180 94 244 180 94 244 180 94 244 180 94 244 180 94 244 180 94 244 180 94 244 180 94 244 180 94 244 180 94 244 180 94 244 180 94 244 180 94 244 180 94 244 180 94 244 180 94 244 180 94 244 180 94 244 180 94 244 180 94 244 180 94 244 180 94 244 180 94 244 180 94 244 180 94 244 180 94 244 180 94 244 180 94 244 180 94 244 180 94 244 180 94 244 180 94 244 180 94 244 180 94 244 180 94 244 180 94 244 180 94 244 180 94 244 180 94 244 180 94 244 180 94 244 180 94 244 180 94 244 180 94 244 180 94
248 184 98 248 184 98 248 184 98 248 184 98 248 184 98 248 184 98 248 184 98 248 184 98 248 184 98 248 184 98 248 184 98 248 184 98 248 184 98 248 184 98 248 184 98 248 184 98 248 184 98 248 184 98 248 184 98 248 184 98 248 184 98 248 184 98 248 184 98 248 184 98 248 184 98 248 184 98 248 184 98 248 184 98 248 184 98 248 184 98 248 184 98 248 184 98 248 184 98 248 184 98 248 184 98 248 184 98 248 184 98 248 184 98 248 184 98 248 184 98 248 184 98 248 184 98 248 184 98 248 184 98 248 184 98 248 184 98 248 184 98 248 184 98 248 184 98 248 184 98 248 184 98 248 184 98 248 184 98 248 184 98 248 184 98 248 184 98 248 184 98 248 184 98 248 184 98 248 184 98 248 184 98 248 184 98 248 184 98 248 184 98
252 188 102 252 188 102 252 188 102 252 188 102 252 188 102 252 188 102 252 188 102 252 188 102 252 188 102 252 188 102 252 188 102 252 188 102 252 188 102 252 188 102 252 188 102 252 188 102 252 188 102 252 188 102 252 188 102 252 188 102 252 188 102 252 188 102 252 188 102 252 188 102 252 188 102 252 188 102 252 188 102 252 188 102 252 188 102 252 188 102 252 188 102 252 188 102 252 188 102 252 188 102 252 188 102 252 188 102 252 188 102 252 188 102 252 188 102 252 188 102 252 188 102 252 188 102 252 188 102 252 188 102 252 188 102 252 188 102 252 188 102 252 188 102 252 188 102 252 188 102 252 188 102 252 188 102 252 188 102 252 188 102 252 188 102 252 188 102 252 188 102 252 188 102 252 188 102 252 188 102 252 188 102 252 188 102 252 188 102 252 188 102
0 192 106 0 192 106 0 192 106 0 192 106 0 192 106 0 192 106 0 192 106 0 192 106 0 192 106 0 192 106 0 192 106 0 192 106 0 192 106 0 192 106 0 192 106 0 192 106 0 192 106 0 192 106 0 192 106 0 192 106 0 192 106 0 192 106 0 192 106 0 192 106 0 192 106 0 192 106 0 192 106 0 192 106 0 192 106 0 192 106 0 192 106 0 192 106 0 192 106 0 192 106 0 192 106 0 192 106 0 192 106 0 192 106 0 192 106 0 192 106 0 192 106 0 192 106 0 192 106 0 192 106 0 192 106 0 192 106 0 192 106 0 192 106 0 192 106 0 192 106 0 192 106 0 192 106 0 192 106 0 192 106 0 192 106 0 192 106 0 192 106 0 192 106 0 192 106 0 192 106 0 192 106 0 192 106 0 192 106 0 192 106
4 196 110 4 196 110 4 196 110 4 196 110 4 196 110 4 196 110 4 196 110 4 196 110 4 196 110 4 196 110 4 196 110 4 196 110 4 196 110 4 196 110 4 196 110 4 196 110 4 196 110 4 196 110 4 196 110 4 196 110 4 196 110 4 196 110 4 196 110 4 196 110 4 196 110 4 196 110 4 196 110 4 196 110 4 196 110 4 196 110 4 196 110 4 196 110 4 196 110 4 196 110 4 196 110 4 196 110 4 196 110 4 196 110 4 196 110 4 196 110 4 196 110 4 196 110 4 196 110 4 196 110 4 196 110 4 196 110 4 196 110 4 196 110 4 196 110 4 196 110 4 196 110 4 196 110 4 196 110 4 196 110 4 196 110 4 196 110 4 196 110 4 196 110 4 196 110 4 196 110 4 196 110 4 196 110 4 196 110 4 196 110
8 200 114 8 200 114 8 200 114 8 200 114 8 200 114 8 200 114 8 200 114 8 200 114 8 200 114 8 200 114 8 200 114 8 200 114 8 200 114 8 200 114 8 200 114 8 200 114 8 200 114 8 200 114 8 200 114 8 200 114 8 200 114 8 200 114 8 200 114 8 200 114 8 200 114 8 200 114 8 200 114 8 200 114 8 200 114 8 200 114 8 200 114 8 200 114 8 200 114 8 200 114 8 200 114 8 200 114 8 200 114 8 200 114 8 200 114 8 200 114 8 200 114 8 200 114 8 200 114 8 200 114 8 200 114 8 200 114 8 200 114 8 200 114 8 200 114 8 200 114 8 200 114 8 200 114 8 200 114 8 200 114 8 200 114 8 200 114 8 200 114 8 200 114 8 200 114 8 200 114 8 200 114 8 200 114 8 200 114 8 200 114
12 204 118 12 204 118 12 204 118 12 204 118 12 204 118 12 204 118 12 204 118 12 204 118 12 204 118 12 204 118 12 204 118 12 204 118 12 204 118 12 204 118 12 204 118 12 204 118 12 204 118 12 204 118 12 204 118 12 204 118 12 204 118 12 204 118 12 204 118 12 204 118 12 204 118 12 204 118 12 204 118 12 204 118 12 204 118 12 204 118 12 204 118 12 204 118 12 204 118 12 204 118 12 204 118 12 204 118 12 204 118 12 204 118 12 204 118 12 204 118 12 204 118 12 204 118 12 204 118 12 204 118 12 204 118 12 204 118 12 204 118 12 204 118 12 204 118 12 204 118 12 204 118 12 204 118 12 204 118 12 204 118 12 204 118 12 204 118 12 204 118 12 204 118 12 204 118 12 204 118 12 204 118 12 204 118 12 204 118 12 204 118
16 208 122 16 208 122 16 208 122 16 208 122 16 208 122 16 208 122 16 208 122 16 208 122 16 208 122 16 208 122 16 208 122 16 208 122 16 208 122 16 208 122 16 208 122 16 208 122 16 208 122 16 208 122 16 208 122 16 208 122 16 208 122 16 208 122 16 208 122 16 208 122 16 208 122 16 208 122 16 208 122 16 208 122 16 208 122 16 208 122 16 208 122 16 208 122 16 208 122 16 208 122 16 208 122 16 208 122 16 208 122 16 208 122 16 208 122 16 208 122 16 208 122 16 208 122 16 208 122 16 208 122 16 208 122 16 208 122 16 208 122 16 208 122 16 208 122 16 208 122 16 208 122 16 208 122 16 208 122 16 208 122 16 208 122 16 208 122 16 208 122 16 208 122 16 208 122 16 208 122 16 208 122 16 208 122 16 208 122 16 208 122
20 212 126 20 212 126 20 212 126 20 212 126 20 212 126 20 212 126 20 212 126 20 212 126 20 212 126 20 212 126 20 212 126 20 212 126 20 212 126 20 212 126 20 212 126 20 212 126 20 212 126 20 212 126 20 212 126 20 212 126 20 212 126 20 212 126 20 212 126 20 212 126 20 212 126 20 212 126 20 212 126 20 212 126 20 212 126 20 212 126 20 212 126 20 212 126 20 212 126 20 212 126 20 212 126 20 212 126 20 212 126 20 212 126 20 212 126 20 212 126 20 212 126 20 212 126 20 212 126 20 212 126 20 212 126 20 212 126 20 212 126 20 212 126 20 212 126 20 212 126 20 212 126 20 212 126 20 212 126 20 212 126 20 212 126 20 212 126 20 212 126 20 212 126 20 212 126 20 212 126 20 212 126 20 212 126 20 212 126 20 212 126
24 216 130 24 216 130 24 216 130 24 216 130 24 216 130 24 216 130 24 216 130 24 216 130 24 216 130 24 216 130 24 216 130 24 216 130 24 216 130 24 216 130 24 216 130 24 216 130 24 216 130 24 216 130 24 216 130 24 216 130 24 216 130 24 216 130 24 216 130 24 216 130 24 216 130 24 216 130 24 216 130 24 216 130 24 216 130 24 216 130 24 216 130 24 216 130 24 216 130 24 216 130 24 216 130 24 216 130 24 216 130 24 216 130 24 216 130 24 216 130 24 216 130 24 216 130 24 216 130 24 216 130 24 216 130 24 216 130 24 216 130 24 216 130 24 216 130 24 216 130 24 216 130 24 216 130 24 216 130 24 216 130 24 216 130 24 216 130 24 216 130 24 216 130 24 216 130 24 216 130 24 216 130 24 216 130 24 216 130 24 216 130
